<svg width="1440" height="1024" viewBox="0 0 1440 1024" fill="none" xmlns="http://www.w3.org/2000/svg">
<g clip-path="url(#clip0)">
<path d="M1211.61 1025.95L1213.06 1035.85L1232.85 1032.94L1231.39 1023.05L1211.61 1025.95ZM1237 958.5L1231.54 950.124L1237 958.5ZM1383.5 854L1387.64 844.896L1387.64 844.896L1383.5 854ZM1437.63 892.234L1446.36 897.104L1456.1 879.637L1447.37 874.766L1437.63 892.234ZM1441.43 846.518L1450.95 849.585L1457.09 830.549L1447.57 827.482L1441.43 846.518ZM1443.2 798.476L1453.17 797.78L1451.78 777.828L1441.8 778.524L1443.2 798.476ZM1436.05 940.168L1442.72 947.62L1457.62 934.284L1450.95 926.832L1436.05 940.168ZM1384.5 906.5L1388.53 915.653L1388.53 915.653L1384.5 906.5ZM1352 993L1361.78 990.905L1361.78 990.905L1352 993ZM1357.4 1030.61L1362.52 1039.21L1379.71 1028.98L1374.6 1020.39L1357.4 1030.61ZM1414.2 1032.75L1418.95 1041.55L1436.55 1032.05L1431.8 1023.25L1414.2 1032.75ZM1416.5 992L1424.94 997.369L1424.94 997.369L1416.5 992ZM1439.34 986.487L1448.82 989.649L1455.15 970.675L1445.66 967.513L1439.34 986.487ZM1259.15 1026.25L1257.4 1036.1L1277.1 1039.6L1278.85 1029.75L1259.15 1026.25ZM1295.63 1034.12L1300.25 1042.99L1317.99 1033.75L1313.37 1024.88L1295.63 1034.12ZM1130.57 1033.28L1129.36 1043.21L1149.21 1045.64L1150.43 1035.72L1130.57 1033.28ZM1232.5 850L1222.8 847.575L1222.8 847.575L1232.5 850ZM1283.5 790.5L1284.64 800.435L1284.64 800.435L1283.5 790.5ZM1385.5 749.5L1380.36 740.925L1380.36 740.925L1385.5 749.5ZM1439.5 737.45L1449.46 738.445L1451.45 718.545L1441.5 717.55L1439.5 737.45ZM1084.22 1025.4L1082.12 1035.17L1101.67 1039.38L1103.78 1029.6L1084.22 1025.4ZM1104 943L1113.15 938.973L1113.15 938.973L1104 943ZM869.5 836.5L865.413 845.627L865.413 845.627L869.5 836.5ZM802.207 1025.47L800.181 1035.27L819.767 1039.32L821.793 1029.53L802.207 1025.47ZM875 1028.5L871.433 1019.16L871.404 1019.17L871.376 1019.18L875 1028.5ZM912 1001.5L920.666 1006.49L920.666 1006.49L912 1001.5ZM943.461 1026.3L938.257 1034.83L955.334 1045.24L960.539 1036.7L943.461 1026.3ZM1009.5 976.5L1008.52 966.548L1008.52 966.548L1009.5 976.5ZM1032 1003L1041.97 1002.23L1041.97 1002.23L1032 1003ZM1022.03 1028.76L1021.29 1038.73L1041.23 1040.21L1041.97 1030.24L1022.03 1028.76ZM1448.97 665.521L1456.99 659.549L1445.05 643.507L1437.03 649.479L1448.97 665.521ZM1333.5 732.5L1330.02 723.126L1330.02 723.126L1333.5 732.5ZM1102 880L1102.53 870.014L1102 880ZM1198.5 590L1205.35 582.712L1205.35 582.712L1198.5 590ZM1386.5 630L1392.58 637.936L1392.58 637.936L1386.5 630ZM1451.48 582.636L1458.12 575.155L1443.16 561.883L1436.52 569.364L1451.48 582.636ZM1450.66 514.924L1457.09 507.26L1441.76 494.412L1435.34 502.076L1450.66 514.924ZM1343 580L1343.81 589.967L1343.81 589.967L1343 580ZM743.5 970L753.275 967.89L753.275 967.89L743.5 970ZM738.98 1024.94L735.92 1034.46L754.96 1040.58L758.02 1031.06L738.98 1024.94ZM1361.5 508L1366.59 516.609L1366.59 516.609L1361.5 508ZM1361.48 508.012L1366.57 516.621L1366.57 516.621L1361.48 508.012ZM1301 506.5L1307.69 499.067L1307.69 499.067L1301 506.5ZM1037.5 330L1043.61 322.08L1043.61 322.08L1037.5 330ZM1422.5 170L1428.05 161.679L1428.05 161.679L1422.5 170ZM1339.5 437L1340 427.012L1339.84 427.004L1339.68 427.002L1339.5 437ZM1333.5 346.5L1341.34 340.293L1341.26 340.195L1341.18 340.098L1333.5 346.5ZM1218 28.5L1208.01 28.0006L1208.01 28.0006L1218 28.5ZM1270 35.5L1279.75 33.2718L1279.75 33.2717L1270 35.5ZM1154 100.5L1163.48 103.692L1163.48 103.692L1154 100.5ZM944 296.5L953.998 296.717L953.998 296.717L944 296.5ZM943.985 297.176L953.983 297.395L953.983 297.394L943.985 297.176ZM969.5 361.5L972.503 351.962L972.503 351.962L969.5 361.5ZM721 665.5L719.389 675.369L719.389 675.369L721 665.5ZM1103 53.5L1112.88 55.031L1112.88 55.031L1103 53.5ZM912.5 32.5L922.415 33.8045L912.5 32.5ZM1049.5 27.5L1039.51 27.8569L1039.51 27.8569L1049.5 27.5ZM708 78.5L698.006 78.8569L698.006 78.8569L708 78.5ZM655 83.5L645.935 87.722L645.935 87.7221L655 83.5ZM675 947.5L666.354 952.524L666.354 952.524L675 947.5ZM450 996L447.968 986.209L447.968 986.209L450 996ZM324.5 982.5L326.442 992.31L326.442 992.31L324.5 982.5ZM380 996L370.081 994.734L370.081 994.734L380 996ZM414.5 881L424.188 883.48L424.188 883.478L414.5 881ZM414.445 881.215L404.757 878.735L404.757 878.736L414.445 881.215ZM431 951.5L432.331 941.589L432.331 941.589L431 951.5ZM451.5 59L451.794 49.0043L451.786 49.0041L451.5 59ZM297.5 328L299.5 318.202L299.462 318.194L299.424 318.187L297.5 328ZM-10.5 915.5L-20.4831 914.92L-20.4831 914.92L-10.5 915.5ZM63.5 540L63.2858 549.998L63.2858 549.998L63.5 540ZM74.5 627L83.2558 622.169L83.2558 622.169L74.5 627ZM120 155L110.003 154.763L110.003 154.763L120 155ZM162.5 484L157.881 475.131L157.881 475.131L162.5 484ZM23.5 436L26.0242 445.676L26.0242 445.676L23.5 436ZM17.5 29.5L18.4481 19.545L18.4481 19.545L17.5 29.5ZM1231.39 1023.05C1230.25 1015.27 1229.59 1002.78 1231.31 991.076C1233.11 978.788 1237.07 970.393 1242.46 966.876L1231.54 950.124C1218.53 958.607 1213.49 974.712 1211.52 988.174C1209.46 1002.22 1210.25 1016.73 1211.61 1025.95L1231.39 1023.05ZM1242.46 966.876C1246.78 964.062 1253.08 961.789 1261.03 959.847C1268.9 957.924 1277.4 956.541 1285.98 955.037C1294.23 953.59 1302.83 951.989 1309.74 949.599C1315.89 947.47 1324.65 943.452 1327.52 934.57L1308.48 928.43C1308.85 927.298 1309.11 928.655 1303.2 930.698C1298.05 932.48 1291.02 933.847 1282.52 935.338C1274.35 936.772 1264.97 938.295 1256.28 940.419C1247.67 942.524 1238.72 945.438 1231.54 950.124L1242.46 966.876ZM1327.52 934.57C1334 914.479 1325.3 897.954 1317.22 888.143L1301.78 900.857C1307.7 908.046 1312 917.521 1308.48 928.43L1327.52 934.57ZM1317.22 888.143C1315.23 885.733 1311.87 882.191 1308.73 878.78C1305.39 875.15 1301.87 871.224 1298.88 867.403C1295.77 863.429 1293.79 860.25 1292.97 858.097C1292.01 855.59 1293.75 858.154 1291.14 860.474L1277.86 845.526C1270.75 851.846 1272.49 860.535 1274.28 865.231C1276.21 870.281 1279.73 875.384 1283.12 879.722C1286.63 884.214 1290.61 888.631 1294.02 892.33C1297.63 896.247 1300.27 899.017 1301.78 900.857L1317.22 888.143ZM1291.14 860.474C1290.83 860.75 1291.27 860.301 1293.39 859.532C1295.28 858.847 1297.87 858.133 1301.12 857.47C1307.6 856.148 1316.03 855.168 1325.32 854.87C1344.17 854.266 1364.89 856.526 1379.36 863.104L1387.64 844.896C1369.11 836.474 1344.83 834.234 1324.68 834.88C1314.47 835.207 1304.9 836.289 1297.13 837.874C1293.25 838.664 1289.66 839.613 1286.58 840.729C1283.73 841.762 1280.42 843.25 1277.86 845.526L1291.14 860.474ZM1379.36 863.104C1405.48 874.976 1429.17 887.516 1437.63 892.234L1447.37 874.766C1438.5 869.818 1414.32 857.024 1387.64 844.896L1379.36 863.104ZM1447.57 827.482C1440.49 825.202 1429.93 821.053 1421.33 816.151C1417 813.682 1413.62 811.275 1411.46 809.132C1409.06 806.764 1409.5 806.08 1409.5 807H1389.5C1389.5 814.12 1393.69 819.682 1397.39 823.346C1401.32 827.235 1406.38 830.647 1411.42 833.524C1421.57 839.314 1433.51 843.965 1441.43 846.518L1447.57 827.482ZM1409.5 807C1409.5 808.231 1408.68 808.19 1410.3 806.948C1411.93 805.696 1414.75 804.292 1418.75 802.973C1426.66 800.37 1436.52 798.941 1443.2 798.476L1441.8 778.524C1434.14 779.059 1422.51 780.68 1412.5 783.977C1407.54 785.608 1402.3 787.866 1398.11 791.09C1393.9 794.322 1389.5 799.569 1389.5 807H1409.5ZM1450.95 926.832C1444.77 919.927 1434.23 910.218 1422.26 903.294C1410.79 896.663 1395.08 890.919 1380.47 897.347L1388.53 915.653C1393.92 913.281 1402.04 914.703 1412.24 920.606C1421.94 926.215 1430.89 934.406 1436.05 940.168L1450.95 926.832ZM1380.47 897.347C1372.29 900.947 1366.7 906.38 1364.24 913.613C1361.95 920.331 1362.95 926.996 1364.16 931.938C1364.79 934.493 1365.57 936.955 1366.24 939.052C1366.96 941.274 1367.52 942.994 1367.95 944.587C1369.01 948.579 1367.99 947.831 1369.05 946.16L1385.95 956.84C1390.01 950.419 1388.24 943.046 1387.27 939.429C1386.68 937.217 1385.91 934.886 1385.28 932.922C1384.61 930.834 1384.03 928.976 1383.59 927.187C1382.67 923.442 1382.74 921.325 1383.17 920.059C1383.43 919.308 1384.21 917.553 1388.53 915.653L1380.47 897.347ZM1369.05 946.16C1368.08 947.691 1366.16 949.958 1363.12 953.349C1360.32 956.468 1356.8 960.306 1353.59 964.284C1350.4 968.246 1347.1 972.832 1344.82 977.705C1342.56 982.53 1340.83 988.619 1342.22 995.095L1361.78 990.905C1361.67 990.381 1361.63 988.97 1362.93 986.185C1364.21 983.449 1366.35 980.316 1369.16 976.841C1371.95 973.382 1374.99 970.063 1378.01 966.698C1380.78 963.605 1383.92 960.059 1385.95 956.84L1369.05 946.16ZM1342.22 995.095C1344.98 1007.99 1353.65 1024.3 1357.4 1030.61L1374.6 1020.39C1371.02 1014.37 1363.82 1000.41 1361.78 990.905L1342.22 995.095ZM1431.8 1023.25C1429.84 1019.61 1427.16 1013.58 1425.65 1007.69C1424.89 1004.75 1424.52 1002.19 1424.52 1000.18C1424.52 999.199 1424.61 998.483 1424.73 997.995C1424.84 997.515 1424.95 997.35 1424.94 997.369L1408.06 986.631C1405.27 991.022 1404.53 995.966 1404.52 1000.15C1404.51 1004.41 1405.27 1008.75 1406.28 1012.66C1408.29 1020.49 1411.66 1028.05 1414.2 1032.75L1431.8 1023.25ZM1424.94 997.369C1427.42 993.465 1431.08 990.335 1434.62 988.43C1436.37 987.486 1437.87 986.964 1438.93 986.742C1440.14 986.49 1440.13 986.751 1439.34 986.487L1445.66 967.513C1441.87 966.249 1437.98 966.51 1434.85 967.164C1431.57 967.848 1428.26 969.139 1425.13 970.82C1418.92 974.165 1412.58 979.535 1408.06 986.631L1424.94 997.369ZM1278.85 1029.75C1279.41 1026.58 1280.67 1021.89 1282.41 1018.28C1283.29 1016.45 1284.04 1015.44 1284.46 1015.02C1284.84 1014.63 1284.15 1015.5 1282.5 1015.5V995.5C1277.05 995.5 1272.94 998.243 1270.29 1000.9C1267.67 1003.53 1265.77 1006.74 1264.39 1009.6C1261.62 1015.36 1259.92 1021.92 1259.15 1026.25L1278.85 1029.75ZM1282.5 1015.5C1281.08 1015.5 1280.96 1014.89 1282.43 1016.02C1283.67 1016.99 1285.24 1018.59 1287 1020.77C1290.5 1025.12 1293.76 1030.52 1295.63 1034.12L1313.37 1024.88C1311.07 1020.48 1307.13 1013.88 1302.57 1008.23C1300.31 1005.41 1297.63 1002.51 1294.69 1000.23C1291.97 998.115 1287.72 995.5 1282.5 995.5V1015.5ZM1150.43 1035.72C1153.73 1008.8 1155.77 989.056 1159.07 974.307C1162.38 959.517 1166.43 952.434 1171.77 948.67L1160.23 932.33C1148.57 940.566 1143.12 953.983 1139.55 969.943C1135.98 985.944 1133.77 1007.2 1130.57 1033.28L1150.43 1035.72ZM1171.77 948.67C1177.03 944.952 1183.65 938.283 1190.34 930.746C1197.2 923.014 1204.69 913.724 1211.77 904.224C1218.84 894.73 1225.6 884.898 1230.94 876.073C1236.1 867.556 1240.55 859.023 1242.2 852.425L1222.8 847.575C1221.95 850.977 1218.96 857.256 1213.84 865.709C1208.9 873.852 1202.53 883.145 1195.73 892.276C1188.93 901.401 1181.8 910.236 1175.38 917.473C1168.79 924.904 1163.47 930.048 1160.23 932.33L1171.77 948.67ZM1242.2 852.425C1244.5 843.215 1249.22 830.435 1256.64 819.777C1264.09 809.089 1273.35 801.73 1284.64 800.435L1282.36 780.565C1263.15 782.77 1249.41 795.161 1240.23 808.348C1231.03 821.565 1225.5 836.785 1222.8 847.575L1242.2 852.425ZM1284.64 800.435C1301.41 798.511 1322.39 791.14 1341.45 782.935C1360.72 774.642 1379 765.065 1390.64 758.075L1380.36 740.925C1369.5 747.435 1352.03 756.608 1333.55 764.565C1314.86 772.61 1296.09 778.989 1282.36 780.565L1284.64 800.435ZM1390.64 758.075C1401.98 751.273 1411.45 745.73 1419.85 742.023C1428.28 738.303 1434.52 736.952 1439.5 737.45L1441.5 717.55C1431.48 716.548 1421.47 719.447 1411.77 723.727C1402.05 728.02 1391.52 734.227 1380.36 740.925L1390.64 758.075ZM1103.78 1029.6C1106.39 1017.45 1110.04 998.585 1112.49 981.41C1113.71 972.842 1114.66 964.502 1115.01 957.549C1115.18 954.08 1115.22 950.771 1115.02 947.854C1114.85 945.181 1114.43 941.869 1113.15 938.973L1094.85 947.027C1094.67 946.631 1094.93 947.085 1095.07 949.181C1095.19 951.034 1095.19 953.498 1095.03 956.545C1094.73 962.623 1093.87 970.283 1092.69 978.59C1090.33 995.165 1086.77 1013.55 1084.22 1025.4L1103.78 1029.6ZM1113.15 938.973C1110.22 932.313 1103.58 928.327 1098.56 925.828C1093 923.063 1086.23 920.651 1079.85 918.43C1073.22 916.123 1066.84 913.971 1061.12 911.565C1055.3 909.115 1051.16 906.792 1048.69 904.567L1035.31 919.433C1040.34 923.958 1047.01 927.323 1053.36 929.998C1059.82 932.717 1066.97 935.127 1073.28 937.32C1079.83 939.599 1085.41 941.624 1089.65 943.734C1094.42 946.111 1095.03 947.437 1094.85 947.027L1113.15 938.973ZM1048.69 904.567C1045.95 902.105 1042.69 897.872 1038.88 892.069C1035.11 886.34 1031.38 879.989 1027.34 873.4C1023.43 867.023 1019.26 860.45 1015.01 855.133C1011.08 850.216 1005.71 844.543 998.964 842.449L993.036 861.551C993.027 861.548 993.198 861.601 993.559 861.819C993.919 862.038 994.402 862.381 995.007 862.901C996.24 863.961 997.7 865.511 999.383 867.617C1002.77 871.862 1006.38 877.477 1010.29 883.85C1014.06 890.011 1018.17 896.973 1022.17 903.056C1026.12 909.066 1030.55 915.145 1035.31 919.433L1048.69 904.567ZM998.964 842.449C996.092 841.558 992.388 841.059 988.745 840.704C984.902 840.33 980.324 840.049 975.324 839.801C965.051 839.292 953.316 838.926 940.435 838.203C927.737 837.491 914.673 836.464 902.811 834.723C890.811 832.962 880.701 830.559 873.587 827.373L865.413 845.627C875.049 849.941 887.314 852.663 899.907 854.511C912.639 856.38 926.388 857.447 939.315 858.172C952.059 858.887 964.761 859.302 974.333 859.777C979.254 860.021 983.45 860.283 986.806 860.61C990.362 860.957 992.283 861.317 993.036 861.551L998.964 842.449ZM873.587 827.373C856.409 819.682 834.184 811.642 814.493 807.638C804.699 805.647 794.959 804.532 786.548 805.23C778.47 805.9 769.244 808.465 763.796 816.282L780.204 827.718C780.506 827.285 782.155 825.663 788.202 825.161C793.915 824.687 801.551 825.416 810.507 827.237C828.316 830.858 849.091 838.318 865.413 845.627L873.587 827.373ZM763.796 816.282C759.856 821.935 757.242 829.406 755.548 837.069C753.818 844.897 752.885 853.689 752.751 862.537C752.49 879.833 755.271 899.179 762.805 912.44L780.195 902.56C775.229 893.821 772.51 878.667 772.749 862.838C772.865 855.123 773.682 847.697 775.077 841.384C776.508 834.907 778.394 830.315 780.204 827.718L763.796 816.282ZM762.805 912.44C769.594 924.388 779.689 940.379 789.182 957.582C793.771 965.896 797.847 973.862 800.752 980.726C803.817 987.968 805 992.687 805 995H825C825 988.313 822.308 980.344 819.17 972.93C815.872 965.138 811.417 956.479 806.693 947.918C797.561 931.371 785.906 912.612 780.195 902.56L762.805 912.44ZM805 995C805 1008.63 803.089 1021.21 802.207 1025.47L821.793 1029.53C822.911 1024.12 825 1010.17 825 995H805ZM878.567 1037.84C883.754 1035.86 891.747 1032.1 899.547 1027.02C907.155 1022.06 915.689 1015.14 920.666 1006.49L903.334 996.51C900.711 1001.06 895.328 1005.89 888.627 1010.26C882.12 1014.5 875.413 1017.64 871.433 1019.16L878.567 1037.84ZM920.666 1006.49C925.714 997.723 929.556 988.452 932.765 981.508C936.273 973.918 938.905 969.408 941.644 966.974L928.356 952.026C922.095 957.592 917.977 965.832 914.61 973.117C910.944 981.048 907.786 988.777 903.334 996.51L920.666 1006.49ZM941.644 966.974C942.617 966.109 944.968 964.762 949.59 962.619C953.634 960.743 959.236 958.33 964.476 955.661C974.617 950.496 987.893 942.3 992.51 928.091L973.49 921.909C971.607 927.7 965.383 932.754 955.399 937.839C950.577 940.295 945.96 942.257 941.176 944.475C936.97 946.425 931.883 948.891 928.356 952.026L941.644 966.974ZM992.51 928.091C996.379 916.188 996.35 900.857 989.483 889.557C985.871 883.613 980.269 878.717 972.567 876.665C965.027 874.656 956.633 875.676 947.786 879.215L955.214 897.785C961.367 895.324 965.223 895.406 967.417 895.991C969.45 896.533 971.066 897.762 972.392 899.943C975.4 904.893 976.121 913.812 973.49 921.909L992.51 928.091ZM947.786 879.215C919.707 890.447 901.445 888.914 886.255 880.703L876.745 898.297C898.555 910.086 923.293 910.553 955.214 897.785L947.786 879.215ZM886.255 880.703C877.317 875.871 864.847 868.923 852.945 865.256C841.646 861.774 825.93 859.785 815.426 871.971L830.574 885.029C832.57 882.715 836.854 881.226 847.055 884.369C856.653 887.327 867.183 893.129 876.745 898.297L886.255 880.703ZM815.426 871.971C805.584 883.388 807.096 898.678 812.269 910.556C817.568 922.72 827.733 934.244 840.36 940.858L849.64 923.142C841.267 918.756 834.182 910.78 830.606 902.569C826.904 894.072 827.916 888.112 830.574 885.029L815.426 871.971ZM840.36 940.858C850.11 945.965 854.545 950.218 856.757 955.339C859.129 960.833 859.81 969.296 857.145 984.806L876.855 988.194C879.69 971.704 879.871 958.417 875.118 947.411C870.205 936.032 860.89 929.035 849.64 923.142L840.36 940.858ZM857.145 984.806C854.339 1001.13 853.799 1014.1 855.807 1023.01C856.788 1027.37 858.732 1032.38 862.956 1035.74C867.933 1039.7 873.83 1039.68 878.624 1037.82L871.376 1019.18C871.67 1019.07 873.63 1018.68 875.403 1020.09C876.425 1020.9 875.899 1021.2 875.318 1018.62C874.201 1013.65 874.161 1003.87 876.855 988.194L857.145 984.806ZM960.539 1036.7C965.61 1028.38 974.495 1015.7 984.432 1004.99C989.4 999.631 994.422 994.995 999.167 991.653C1004.05 988.216 1007.85 986.71 1010.48 986.452L1008.52 966.548C1000.95 967.29 993.798 970.972 987.652 975.301C981.37 979.724 975.292 985.432 969.768 991.387C958.722 1003.3 949.057 1017.12 943.461 1026.3L960.539 1036.7ZM1010.48 986.452C1016.02 985.909 1018.68 986.525 1019.77 986.981C1020.43 987.258 1020.56 987.441 1020.77 987.929C1021.17 988.857 1021.51 990.492 1021.66 993.522C1021.73 994.984 1021.76 996.469 1021.79 998.242C1021.83 999.93 1021.88 1001.84 1022.03 1003.77L1041.97 1002.23C1041.87 1000.91 1041.83 999.476 1041.79 997.811C1041.76 996.23 1041.73 994.352 1041.64 992.525C1041.46 988.977 1041.01 984.33 1039.11 979.946C1037.01 975.122 1033.29 970.96 1027.5 968.534C1022.13 966.287 1015.73 965.841 1008.52 966.548L1010.48 986.452ZM1022.03 1003.77C1022.78 1013.5 1022.34 1024.56 1022.03 1028.76L1041.97 1030.24C1042.33 1025.44 1042.82 1013.3 1041.97 1002.23L1022.03 1003.77ZM1437.03 649.479C1421.75 660.857 1397.96 678.245 1376.27 693.419C1365.42 701.01 1355.16 708 1346.79 713.391C1338.03 719.03 1332.3 722.277 1330.02 723.126L1336.98 741.874C1341.7 740.123 1349.32 735.549 1357.62 730.206C1366.3 724.615 1376.79 717.461 1387.73 709.806C1409.63 694.488 1433.59 676.977 1448.97 665.521L1437.03 649.479ZM1330.02 723.126C1327.42 724.091 1322.75 724.688 1315.8 724.688C1309.11 724.688 1301.39 724.156 1293.2 723.529C1285.17 722.914 1276.66 722.202 1268.94 721.943C1261.36 721.689 1253.62 721.822 1247.3 723.244L1251.7 742.756C1255.38 741.928 1260.95 741.686 1268.27 741.932C1275.44 742.173 1283.39 742.836 1291.67 743.471C1299.8 744.094 1308.24 744.688 1315.8 744.688C1323.12 744.688 1330.83 744.159 1336.98 741.874L1330.02 723.126ZM1247.3 723.244C1234.01 726.236 1220.7 736.973 1209.25 751.581C1197.55 766.51 1186.79 786.721 1178.98 810.93L1198.02 817.07C1205.21 794.779 1214.95 776.74 1225 763.919C1235.3 750.777 1244.99 744.264 1251.7 742.756L1247.3 723.244ZM1178.98 810.93C1165.44 852.907 1126.22 871.283 1102.53 870.014L1101.47 889.986C1133.78 891.717 1181.56 868.093 1198.02 817.07L1178.98 810.93ZM1102.53 870.014C1090.23 869.355 1081.53 865.563 1076.35 860.777C1071.36 856.179 1069.07 850.226 1069.93 843.211L1050.07 840.789C1048.43 854.274 1053.14 866.571 1062.78 875.473C1072.22 884.187 1085.77 889.145 1101.47 889.986L1102.53 870.014ZM1069.93 843.211C1071.02 834.259 1073.37 829.571 1075.79 826.75C1078.24 823.877 1081.65 821.872 1087.01 819.863L1079.99 801.137C1073.35 803.628 1066.26 807.123 1060.59 813.75C1054.88 820.429 1051.48 829.241 1050.07 840.789L1069.93 843.211ZM1087.01 819.863C1092.18 817.926 1106.42 813.613 1119.68 806.586C1132.78 799.644 1147.87 788.62 1153.07 771.39L1133.93 765.61C1131.13 774.88 1122.22 782.606 1110.32 788.914C1098.58 795.137 1086.82 798.574 1079.99 801.137L1087.01 819.863ZM1153.07 771.39C1157.66 756.212 1157.22 734.075 1156.36 716.024C1155.9 706.325 1155.34 698.389 1155.04 691.157C1154.89 687.702 1154.83 684.84 1154.88 682.602C1154.93 680.126 1155.12 679.23 1155.12 679.247L1135.88 673.753C1135.13 676.395 1134.94 679.515 1134.88 682.16C1134.82 685.042 1134.9 688.407 1135.06 691.999C1135.34 698.861 1135.97 708.3 1136.39 716.976C1137.28 735.675 1137.34 754.288 1133.93 765.61L1153.07 771.39ZM1155.12 679.247C1155.33 678.501 1156.17 676.826 1158.32 673.995C1160.37 671.302 1162.87 668.477 1165.67 665.246C1168.32 662.203 1171.3 658.726 1173.61 655.321C1175.67 652.269 1178.5 647.475 1178.5 642H1158.5C1158.5 641.025 1158.83 641.481 1157.05 644.101C1155.51 646.368 1153.31 648.984 1150.58 652.129C1148.01 655.085 1144.94 658.542 1142.4 661.896C1139.95 665.111 1137.17 669.249 1135.88 673.753L1155.12 679.247ZM1178.5 642C1178.5 637.87 1177.12 633.465 1175.93 630.112C1174.67 626.543 1172.97 622.484 1171.6 619.05C1170.14 615.38 1168.96 612.197 1168.26 609.525C1167.48 606.527 1167.76 605.745 1167.64 606.176L1148.36 600.824C1146.99 605.755 1147.96 610.911 1148.91 614.568C1149.95 618.553 1151.55 622.745 1153.02 626.45C1154.59 630.391 1155.99 633.707 1157.08 636.794C1157.61 638.286 1157.99 639.511 1158.23 640.497C1158.35 640.982 1158.42 641.355 1158.46 641.631C1158.5 641.912 1158.5 642.024 1158.5 642H1178.5ZM1167.64 606.176C1167.61 606.263 1167.73 605.859 1168.27 604.992C1168.77 604.182 1169.51 603.194 1170.47 602.127C1172.43 599.965 1174.99 597.852 1177.75 596.36C1180.53 594.861 1183.07 594.218 1185.19 594.298C1187.09 594.369 1189.24 595.023 1191.65 597.288L1205.35 582.712C1199.51 577.227 1192.79 574.569 1185.94 574.312C1179.31 574.063 1173.22 576.077 1168.25 578.765C1163.26 581.461 1158.94 585.066 1155.65 588.701C1152.54 592.141 1149.58 596.44 1148.36 600.824L1167.64 606.176ZM1191.65 597.288C1197.49 602.772 1200.01 610.219 1201.65 619.495C1202.06 621.786 1202.4 624.096 1202.74 626.488C1203.08 628.829 1203.43 631.311 1203.82 633.696C1204.6 638.362 1205.72 643.625 1207.99 648.338L1226.01 639.662C1225.03 637.625 1224.27 634.7 1223.55 630.397C1223.2 628.299 1222.89 626.101 1222.54 623.648C1222.2 621.248 1221.82 618.651 1221.35 616.005C1219.49 605.531 1216.01 592.728 1205.35 582.712L1191.65 597.288ZM1207.99 648.338C1216.89 666.813 1237.19 677 1270 677V657C1240.81 657 1230.11 648.187 1226.01 639.662L1207.99 648.338ZM1270 677C1286.73 677 1309.34 673.275 1331.47 666.712C1353.55 660.165 1376.22 650.48 1392.58 637.936L1380.42 622.064C1366.78 632.52 1346.7 641.335 1325.78 647.538C1304.91 653.725 1284.27 657 1270 657V677ZM1392.58 637.936C1417.28 619.003 1442.09 593.227 1451.48 582.636L1436.52 569.364C1427.58 579.44 1403.72 604.197 1380.42 622.064L1392.58 637.936ZM1435.34 502.076C1426.18 513 1410.24 529.689 1392.52 543.898C1374.33 558.483 1356.14 568.898 1342.19 570.033L1343.81 589.967C1364.26 588.302 1386.57 574.301 1405.03 559.502C1423.96 544.328 1440.82 526.667 1450.66 514.924L1435.34 502.076ZM1342.19 570.033C1320.77 571.776 1301.4 572.108 1285.64 567.901C1270.49 563.856 1259 555.741 1252.17 540.017L1233.83 547.983C1243.5 570.259 1260.51 581.894 1280.48 587.224C1299.85 592.392 1322.23 591.724 1343.81 589.967L1342.19 570.033ZM1252.17 540.017C1244.1 521.435 1232.36 488.218 1221.63 457.455C1216.3 442.179 1211.23 427.556 1207.07 415.901C1203.01 404.545 1199.53 395.199 1197.44 391.028L1179.56 399.972C1180.97 402.801 1183.99 410.767 1188.23 422.631C1192.36 434.194 1197.39 448.696 1202.75 464.045C1213.39 494.532 1225.4 528.565 1233.83 547.983L1252.17 540.017ZM1197.44 391.028C1194.23 384.608 1186.96 368.463 1177.86 356.126C1173.35 350.011 1167.59 343.68 1160.64 340.122C1157.03 338.271 1152.83 337.039 1148.23 337.226C1143.57 337.416 1139.18 339.038 1135.23 341.836L1146.77 358.164C1147.94 357.337 1148.66 357.225 1149.05 357.21C1149.49 357.191 1150.28 357.284 1151.53 357.924C1154.32 359.352 1157.84 362.677 1161.77 367.999C1169.54 378.537 1175.77 392.392 1179.56 399.972L1197.44 391.028ZM1135.23 341.836C1128.97 346.26 1124.57 351.37 1122.39 357.29C1120.16 363.303 1120.65 368.98 1122.04 373.66C1123.37 378.151 1125.63 382.011 1127.27 384.693C1128.24 386.263 1128.78 387.094 1129.41 388.146C1130 389.144 1130.11 389.447 1130.08 389.363L1148.92 382.637C1148.26 380.803 1147.31 379.121 1146.6 377.93C1145.93 376.792 1144.93 375.229 1144.32 374.229C1142.81 371.77 1141.75 369.786 1141.21 367.965C1140.73 366.332 1140.77 365.228 1141.15 364.226C1141.55 363.13 1142.78 360.99 1146.77 358.164L1135.23 341.836ZM1130.08 389.363C1131.04 392.041 1135.9 409.449 1138.9 432.004C1141.9 454.629 1142.82 481.02 1136.87 502.308L1156.13 507.692C1163.18 482.48 1161.85 452.871 1158.73 429.371C1155.6 405.801 1150.46 386.959 1148.92 382.637L1130.08 389.363ZM1136.87 502.308C1131.09 522.987 1120.94 533.172 1110.42 544.51C1099.47 556.304 1088.27 569.309 1086.52 594.304L1106.48 595.696C1107.73 577.691 1115.03 568.946 1125.08 558.115C1135.56 546.828 1148.91 533.513 1156.13 507.692L1136.87 502.308ZM1086.52 594.304C1085.01 616.05 1083.29 648.504 1077.6 679.508C1074.76 694.979 1070.99 709.757 1065.91 722.409C1060.8 735.144 1054.63 745.072 1047.36 751.52L1060.64 766.48C1071.12 757.178 1078.76 744.106 1084.48 729.857C1090.23 715.525 1094.3 699.333 1097.27 683.117C1103.21 650.746 1104.99 616.95 1106.48 595.696L1086.52 594.304ZM1047.36 751.52C1030.23 766.723 1012.3 778.791 990.962 785.598C969.687 792.383 944.308 794.163 911.961 787.694L908.039 807.306C943.192 814.337 972.063 812.617 997.038 804.652C1021.95 796.709 1042.27 782.777 1060.64 766.48L1047.36 751.52ZM911.961 787.694C879.238 781.15 850.493 769.849 826.82 759.686C815.186 754.691 804.266 749.743 795.234 746.055C786.319 742.414 777.772 739.358 770.604 738.561L768.396 758.439C772.477 758.892 778.681 760.898 787.672 764.57C796.546 768.194 806.689 772.809 818.93 778.064C843.007 788.401 873.262 800.35 908.039 807.306L911.961 787.694ZM770.604 738.561C758.832 737.253 741.014 736.547 724.381 739.602C708.319 742.552 689.956 749.678 682.347 766.973L700.653 775.027C704.044 767.322 713.431 761.948 727.994 759.273C741.986 756.703 757.668 757.247 768.396 758.439L770.604 738.561ZM682.347 766.973C676.012 781.369 673.349 802.171 674.133 821.836C674.909 841.315 679.164 862.173 688.85 875.795L705.149 864.205C698.836 855.327 694.84 839.185 694.117 821.039C693.401 803.079 695.987 785.631 700.653 775.027L682.347 766.973ZM688.85 875.795C704.534 897.85 724.643 930.048 733.725 972.11L753.275 967.89C743.357 921.952 721.466 887.15 705.149 864.205L688.85 875.795ZM733.725 972.11C737.433 989.284 738.97 1002.08 739.426 1010.96C739.653 1015.41 739.607 1018.81 739.443 1021.25C739.361 1022.47 739.253 1023.4 739.149 1024.06C739.038 1024.77 738.956 1025.01 738.98 1024.94L758.02 1031.06C759.356 1026.9 759.898 1019.67 759.399 1009.94C758.88 999.791 757.167 985.916 753.275 967.89L733.725 972.11ZM1452.71 413.66C1438.23 427.055 1415.97 447.469 1396.25 465.17C1386.38 474.025 1377.18 482.167 1369.93 488.402C1366.3 491.523 1363.2 494.126 1360.77 496.086C1359.55 497.067 1358.55 497.852 1357.75 498.445C1357.36 498.741 1357.04 498.969 1356.79 499.139C1356.67 499.223 1356.58 499.285 1356.51 499.33C1356.44 499.376 1356.41 499.394 1356.41 499.391L1366.59 516.609C1368.41 515.534 1370.85 513.649 1373.33 511.652C1375.99 509.506 1379.26 506.752 1382.96 503.57C1390.38 497.198 1399.7 488.946 1409.6 480.055C1429.43 462.265 1451.77 441.778 1466.29 428.34L1452.71 413.66ZM1356.41 499.391L1356.39 499.403L1366.57 516.621L1366.59 516.609L1356.41 499.391ZM1356.39 499.403C1350.81 502.703 1343.45 506.949 1334.97 508.242C1327.12 509.44 1317.81 508.178 1307.69 499.067L1294.31 513.933C1309.17 527.309 1324.6 530.055 1337.99 528.014C1350.75 526.068 1361.14 519.827 1366.57 516.621L1356.39 499.403ZM1307.69 499.067C1296.2 488.728 1281.41 469.633 1268.84 449.093C1256.14 428.334 1246.82 407.908 1244.89 395.017L1225.11 397.983C1227.68 415.092 1238.86 438.416 1251.78 459.532C1264.84 480.867 1280.8 501.772 1294.31 513.933L1307.69 499.067ZM1244.89 395.017C1242.66 380.173 1241 360.619 1238.74 341.576C1237.64 332.253 1236.41 323.164 1234.91 315.315C1233.46 307.706 1231.6 300.349 1228.94 295.028L1211.06 303.972C1212.4 306.651 1213.85 311.669 1215.26 319.06C1216.63 326.211 1217.8 334.747 1218.88 343.924C1221 361.881 1222.84 382.827 1225.11 397.983L1244.89 395.017ZM1228.94 295.028C1224.74 286.609 1217.87 274.78 1206.99 265.651C1195.78 256.248 1180.52 249.922 1160.67 252.589L1163.33 272.411C1176.98 270.578 1186.72 274.752 1194.14 280.974C1201.88 287.47 1207.26 296.391 1211.06 303.972L1228.94 295.028ZM1160.67 252.589C1124.56 257.44 1099.58 273.33 1081.91 297.618L1098.09 309.382C1112.42 289.67 1132.44 276.56 1163.33 272.411L1160.67 252.589ZM1081.91 297.618C1077.62 303.521 1074.21 308.568 1070.48 313.446C1066.84 318.206 1063.67 321.711 1060.69 323.982C1057.85 326.149 1055.69 326.8 1053.79 326.76C1051.79 326.718 1048.53 325.876 1043.61 322.08L1031.39 337.92C1038.47 343.374 1045.77 346.595 1053.37 346.756C1061.06 346.918 1067.53 343.913 1072.81 339.893C1077.95 335.976 1082.41 330.762 1086.36 325.601C1090.22 320.557 1094.38 314.479 1098.09 309.382L1081.91 297.618ZM1043.61 322.08C1032.02 313.15 1024.81 305.263 1021.51 298.653C1018.54 292.728 1018.87 288.403 1021.78 284.108L1005.22 272.892C997.63 284.097 997.955 296.272 1003.62 307.597C1008.94 318.237 1018.98 328.35 1031.39 337.92L1043.61 322.08ZM1021.78 284.108C1022.31 283.321 1023.87 281.583 1026.99 278.916C1029.95 276.386 1033.82 273.427 1038.44 270.184C1047.67 263.705 1059.5 256.362 1072.15 249.38C1084.8 242.396 1098.1 235.868 1110.26 230.962C1122.64 225.97 1133.06 222.985 1140.21 222.475L1138.79 202.525C1128.44 203.265 1115.67 207.218 1102.78 212.413C1089.69 217.695 1075.64 224.604 1062.48 231.87C1049.31 239.138 1036.86 246.857 1026.95 253.816C1022 257.291 1017.58 260.646 1013.99 263.717C1010.56 266.651 1007.31 269.804 1005.22 272.892L1021.78 284.108ZM1140.21 222.475C1157.3 221.254 1182.52 222.254 1207.8 222.125C1220.14 222.062 1232.35 221.717 1242.91 220.618C1253.11 219.557 1263.17 217.678 1270.3 213.771L1260.7 196.229C1257.33 198.072 1250.77 199.693 1240.84 200.726C1231.28 201.721 1219.86 202.063 1207.7 202.125C1183.98 202.246 1156.7 201.246 1138.79 202.525L1140.21 222.475ZM1270.3 213.771C1275.8 210.762 1283.05 206.324 1290.88 201.585C1298.82 196.775 1307.56 191.521 1316.41 186.624C1325.27 181.715 1334.05 177.274 1342.02 174.053C1350.18 170.756 1356.66 169.087 1361.2 168.998L1360.8 149.002C1352.59 149.163 1343.38 151.931 1334.53 155.509C1325.48 159.163 1315.91 164.035 1306.72 169.126C1297.5 174.229 1288.46 179.662 1280.51 184.478C1272.45 189.364 1265.7 193.488 1260.7 196.229L1270.3 213.771ZM1361.2 168.998C1373.62 168.754 1384.97 169.253 1394.66 170.811C1404.45 172.384 1411.87 174.934 1416.95 178.321L1428.05 161.679C1419.63 156.066 1409.05 152.866 1397.84 151.064C1386.53 149.247 1373.88 148.746 1360.8 149.002L1361.2 168.998ZM1416.95 178.321C1427.35 185.251 1443.42 197.805 1450.23 203.29L1462.77 187.71C1455.92 182.195 1439.25 169.149 1428.05 161.679L1416.95 178.321ZM1339 446.988C1342.62 447.169 1346.03 445.964 1348.5 444.863C1351.22 443.646 1354.07 441.952 1356.93 439.971C1362.68 435.997 1369.13 430.378 1375.49 423.585C1388.15 410.06 1401.29 390.978 1407.6 369.295L1388.4 363.705C1383.21 381.522 1372.1 397.94 1360.89 409.915C1355.31 415.872 1349.92 420.503 1345.55 423.529C1343.35 425.048 1341.59 426.041 1340.33 426.606C1338.81 427.286 1338.88 426.956 1340 427.012L1339 446.988ZM1407.6 369.295C1413.26 349.855 1419.64 329.553 1424.13 311.762C1428.54 294.318 1431.71 277.279 1429.9 264.586L1410.1 267.414C1411.29 275.721 1409.21 289.182 1404.74 306.863C1400.36 324.197 1394.24 343.645 1388.4 363.705L1407.6 369.295ZM1429.9 264.586C1428.16 252.422 1422.9 239.424 1415.26 228.745C1407.7 218.172 1396.96 208.727 1383.7 205.744L1379.3 225.256C1386.04 226.773 1393.05 232.078 1398.99 240.38C1404.85 248.576 1408.84 258.578 1410.1 267.414L1429.9 264.586ZM1383.7 205.744C1371.99 203.11 1355.23 203.4 1338.69 205.79C1322.03 208.199 1304.22 212.936 1290.39 220.128L1299.61 237.872C1310.78 232.064 1326.22 227.801 1341.56 225.585C1357.02 223.35 1371.01 223.39 1379.3 225.256L1383.7 205.744ZM1290.39 220.128C1276.75 227.22 1264.37 237.476 1257.04 249.745C1249.52 262.328 1247.17 277.521 1255.22 292.289L1272.78 282.711C1268.83 275.479 1269.48 267.922 1274.21 260.005C1279.13 251.774 1288.25 243.78 1299.61 237.872L1290.39 220.128ZM1255.22 292.289C1260.89 302.688 1267.44 317.924 1272.77 332.808C1278.19 347.946 1281.91 361.507 1282.54 368.854L1302.46 367.146C1301.59 356.993 1297.06 341.304 1291.6 326.067C1286.06 310.576 1279.11 294.312 1272.78 282.711L1255.22 292.289ZM1282.54 368.854C1283.42 379.177 1288.66 397.614 1297.25 413.609C1301.59 421.685 1307.08 429.699 1313.8 435.847C1320.55 442.021 1329.13 446.816 1339.32 446.998L1339.68 427.002C1335.87 426.934 1331.76 425.166 1327.3 421.091C1322.82 416.989 1318.59 411.065 1314.87 404.141C1307.34 390.136 1303.08 374.323 1302.46 367.146L1282.54 368.854ZM1325.66 352.707C1333.03 362.019 1344.54 365.371 1355.57 360.978C1365.95 356.848 1374.13 346.667 1378.95 332.778L1360.05 326.222C1356.37 336.833 1351.3 341.152 1348.18 342.397C1345.71 343.379 1343.47 342.981 1341.34 340.293L1325.66 352.707ZM1378.95 332.778C1383.82 318.741 1384.64 301.111 1383.79 286.905C1383.36 279.693 1382.48 272.978 1381.31 267.604C1380.73 264.934 1380.03 262.388 1379.19 260.194C1378.52 258.43 1377.21 255.338 1374.69 253.067L1361.31 267.933C1360.04 266.787 1359.98 265.93 1360.5 267.31C1360.86 268.26 1361.31 269.769 1361.77 271.865C1362.67 276.022 1363.45 281.682 1363.83 288.095C1364.61 301.139 1363.68 315.759 1360.05 326.222L1378.95 332.778ZM1374.69 253.067C1371.89 250.545 1367.96 248.831 1364.53 247.699C1360.78 246.463 1356.36 245.512 1351.69 245.101C1342.72 244.312 1330.89 245.379 1321.75 252.691L1334.25 268.309C1337.61 265.621 1343.28 264.438 1349.94 265.024C1353.08 265.301 1356 265.943 1358.27 266.692C1360.85 267.544 1361.61 268.205 1361.31 267.933L1374.69 253.067ZM1321.75 252.691C1311.81 260.649 1309.95 272.817 1310.39 282.211C1310.83 291.845 1313.73 301.209 1316.38 307.104L1334.62 298.896C1332.77 294.791 1330.67 287.905 1330.36 281.289C1330.05 274.433 1331.69 270.351 1334.25 268.309L1321.75 252.691ZM1316.38 307.104C1316.7 307.807 1317.09 309.443 1317.25 312.825C1317.43 316.379 1317.33 319.453 1317.44 324.231C1317.63 332.291 1318.37 343.969 1325.82 352.902L1341.18 340.098C1338.63 337.031 1337.62 331.959 1337.43 323.769C1337.36 320.422 1337.41 315.496 1337.23 311.831C1337.04 307.995 1336.55 303.193 1334.62 298.896L1316.38 307.104ZM1461.33 126.199C1454.3 118.622 1441.76 107.629 1426.35 98.4664C1411.01 89.3519 1391.91 81.5 1372 81.5V101.5C1386.89 101.5 1402.37 107.481 1416.13 115.659C1429.8 123.787 1440.86 133.544 1446.67 139.801L1461.33 126.199ZM1372 81.5C1347.22 81.5 1326.41 93.2118 1309.07 103.212C1300.08 108.393 1292.14 113.078 1284.27 116.503C1276.5 119.883 1269.52 121.697 1262.79 121.504L1262.21 141.496C1272.98 141.803 1283 138.867 1292.25 134.841C1301.4 130.86 1310.48 125.482 1319.06 120.538C1336.84 110.288 1353.28 101.5 1372 101.5V81.5ZM1262.79 121.504C1258.39 121.378 1253.69 118.777 1248.74 111.935C1243.8 105.099 1239.63 95.3451 1236.34 84.2753C1229.74 62.0752 1227.55 37.7122 1227.99 28.9994L1208.01 28.0006C1207.45 39.2878 1210.01 65.9248 1217.16 89.9747C1220.75 102.03 1225.7 114.214 1232.54 123.659C1239.37 133.098 1249.11 141.122 1262.21 141.496L1262.79 121.504ZM1227.99 28.9994C1228.8 12.7905 1229 -4.04895 1229 -10.5H1209C1209 -4.28438 1208.8 12.2095 1208.01 28.0006L1227.99 28.9994ZM1458.68 58.1399C1450.92 52.0355 1438.05 42.9713 1424.33 35.3763C1417.46 31.5749 1410.21 28.046 1403.16 25.4459C1396.23 22.8877 1388.88 21 1382 21V41C1385.52 41 1390.33 42.029 1396.24 44.2104C1402.05 46.3498 1408.34 49.3834 1414.64 52.8737C1427.27 59.8621 1439.25 68.2978 1446.32 73.8601L1458.68 58.1399ZM1382 21C1354.41 21 1324.02 29.378 1308.41 36.3749L1316.59 54.6251C1329.98 48.622 1357.59 41 1382 41V21ZM1308.41 36.3749C1302.55 39.0022 1294.81 40.4229 1288.65 39.5903C1282.76 38.7921 1280.49 36.4995 1279.75 33.2718L1260.25 37.7282C1263.51 52.0005 1275.24 57.9579 1285.97 59.4097C1296.44 60.8271 1307.95 58.4978 1316.59 54.6251L1308.41 36.3749ZM1279.75 33.2717C1278.46 27.6393 1278.23 19.7032 1278.66 11.5215C1279.08 3.503 1280.08 -3.95864 1280.84 -8.2421L1261.16 -11.7579C1260.25 -6.70803 1259.15 1.58033 1258.69 10.4785C1258.23 19.2135 1258.34 29.3607 1260.25 37.7283L1279.75 33.2717ZM1137.85 -27.3836C1141.47 -14.0422 1146.18 8.5183 1148.41 32.3078C1150.66 56.3857 1150.23 80.3637 1144.52 97.3078L1163.48 103.692C1170.57 82.6363 1170.64 55.1977 1168.32 30.4422C1165.97 5.39837 1161.04 -18.2912 1157.15 -32.6164L1137.85 -27.3836ZM1144.52 97.3078C1137.49 118.191 1120.3 136.76 1098.09 152.006C1076.01 167.167 1049.91 178.37 1026.79 184.873L1032.21 204.127C1057.09 197.13 1085.24 185.083 1109.41 168.494C1133.45 151.99 1154.51 130.309 1163.48 103.692L1144.52 97.3078ZM1026.79 184.873C999.67 192.502 976.749 214.317 960.866 236.034C952.815 247.043 946.282 258.415 941.692 268.674C937.228 278.65 934.171 288.521 934.002 296.283L953.998 296.717C954.079 292.979 955.834 286.037 959.948 276.842C963.936 267.929 969.748 257.77 977.009 247.841C991.751 227.683 1011.33 209.998 1032.21 204.127L1026.79 184.873ZM934.002 296.283L933.988 296.959L953.983 297.394L953.998 296.717L934.002 296.283ZM933.988 296.958C933.743 308.158 933.341 323.551 936.838 337.268C940.446 351.419 948.678 365.429 966.497 371.038L972.503 351.962C963.585 349.154 958.809 342.49 956.218 332.327C953.517 321.73 953.726 309.17 953.983 297.395L933.988 296.958ZM966.497 371.038C980.678 375.503 1005.29 381.827 1028.41 391.806C1039.89 396.76 1050.46 402.404 1058.73 408.79C1067.06 415.22 1072.33 421.839 1074.48 428.548L1093.52 422.452C1089.67 410.411 1081 400.717 1070.96 392.96C1060.85 385.158 1048.61 378.74 1036.34 373.444C1011.96 362.923 985.322 355.997 972.503 351.962L966.497 371.038ZM1074.48 428.548C1079.46 444.118 1076.25 466.887 1068.38 490.742C1060.66 514.143 1049.18 536.455 1040.18 549.953L1056.82 561.047C1066.82 546.045 1079.09 522.107 1087.37 497.008C1095.5 472.363 1100.54 444.382 1093.52 422.452L1074.48 428.548ZM1040.18 549.953C1020.69 579.189 1012.83 601.916 1014.02 621.605L1033.98 620.395C1033.18 607.084 1038.31 588.811 1056.82 561.047L1040.18 549.953ZM1014.02 621.605C1014.54 630.181 1016.51 650.858 1011.85 672.387C1007.24 693.725 996.478 714.345 972.492 724.838L980.508 743.162C1012.52 729.155 1026.01 701.525 1031.4 676.613C1036.74 651.892 1034.46 628.319 1033.98 620.395L1014.02 621.605ZM972.492 724.838C946.304 736.296 924.971 737.419 906.172 733.862C886.972 730.23 869.952 721.672 852.022 712.581L842.978 730.419C860.548 739.328 880.028 749.27 902.454 753.513C925.279 757.831 950.697 756.204 980.508 743.162L972.492 724.838ZM852.022 712.581C834.315 703.603 808.656 690.521 784.351 679.187C772.199 673.52 760.276 668.238 749.774 664.102C739.465 660.041 729.867 656.815 722.611 655.631L719.389 675.369C724.383 676.185 732.285 678.709 742.445 682.71C752.412 686.637 763.926 691.73 775.899 697.313C799.844 708.479 825.185 721.397 842.978 730.419L852.022 712.581ZM722.611 655.631C702.122 652.286 668.339 628.976 670.983 583.582L651.017 582.418C647.661 640.024 690.878 670.714 719.389 675.369L722.611 655.631ZM670.983 583.582C673.722 536.563 711.189 495.946 739.362 472.715L726.638 457.285C697.811 481.054 654.278 526.437 651.017 582.418L670.983 583.582ZM739.362 472.715C755.024 459.801 773.251 434.394 787.522 410.503C794.764 398.381 801.21 386.274 806.008 375.785C810.617 365.709 814.273 355.937 814.953 348.971L795.047 347.029C794.727 350.313 792.446 357.354 787.82 367.465C783.384 377.164 777.299 388.619 770.353 400.247C756.249 423.856 739.476 446.699 726.638 457.285L739.362 472.715ZM814.953 348.971C816.005 338.183 816.516 321.625 815.351 304.929C814.209 288.568 811.375 270.597 804.902 257.945L787.098 267.055C791.625 275.903 794.291 290.432 795.399 306.321C796.484 321.875 795.995 337.317 795.047 347.029L814.953 348.971ZM804.902 257.945C794.056 236.745 779.5 205.018 779.5 167H759.5C759.5 209.982 775.944 245.255 787.098 267.055L804.902 257.945ZM779.5 167C779.5 147.253 781.206 128.32 782.652 111.283C784.058 94.7084 785.327 79.0544 783.93 67.3179L764.07 69.6821C765.173 78.9456 764.192 92.2916 762.723 109.592C761.294 126.43 759.5 146.247 759.5 167H779.5ZM783.93 67.3179C782.577 55.9563 778.258 37.6709 772.845 20.6018C770.118 12.0061 767.046 3.49879 763.824 -3.85627C760.696 -10.9956 757.094 -17.8398 753.093 -22.5079L737.907 -9.49209C739.906 -7.16015 742.554 -2.56689 745.504 4.16877C748.361 10.6887 751.194 18.4939 753.78 26.6482C758.992 43.0791 762.923 60.0437 764.07 69.6821L783.93 67.3179ZM834.326 636.557C843.358 642.018 850.621 650.534 858.171 660.034C861.786 664.583 865.606 669.524 869.448 673.826C873.306 678.145 877.688 682.409 882.774 685.526L893.226 668.474C890.562 666.841 887.694 664.23 884.364 660.502C881.019 656.758 877.714 652.48 873.829 647.591C866.379 638.216 857.142 626.982 844.674 619.443L834.326 636.557ZM882.774 685.526C890.914 690.515 900.429 695.232 910.262 696.648C920.623 698.14 931.367 695.924 940.431 687.208L926.569 672.792C922.633 676.576 918.377 677.61 913.113 676.852C907.321 676.018 900.586 672.985 893.226 668.474L882.774 685.526ZM940.431 687.208C945.338 682.49 948.538 675.889 950.853 669.559C953.235 663.046 955.083 655.647 956.696 648.433C960.098 633.224 962.429 619.515 966.237 610.33L947.763 602.67C943.071 613.985 940.152 630.776 937.179 644.067C935.605 651.103 933.984 657.454 932.069 662.691C930.087 668.111 928.162 671.26 926.569 672.792L940.431 687.208ZM966.237 610.33C969.919 601.451 978.654 588.502 989.554 574.611C1000.27 560.96 1012.43 547.201 1022.24 536.897L1007.76 523.103C997.572 533.799 984.983 548.04 973.821 562.264C962.846 576.248 952.581 591.049 947.763 602.67L966.237 610.33ZM1022.24 536.897C1034.29 524.245 1040.26 505.87 1042.65 489.164C1045.04 472.412 1044.11 455.319 1040.54 443.989L1021.46 450.011C1023.89 457.681 1024.96 471.588 1022.85 486.336C1020.74 501.13 1015.71 514.755 1007.76 523.103L1022.24 536.897ZM1040.54 443.989C1037.11 433.137 1031.06 422.499 1021.51 414.829C1011.78 407.009 999.099 402.847 983.733 404.029L985.267 423.971C995.901 423.153 1003.47 425.991 1008.99 430.421C1014.69 435.001 1018.89 441.863 1021.46 450.011L1040.54 443.989ZM983.733 404.029C970.288 405.064 957.191 406.507 944.42 406.689C931.714 406.869 920.627 405.739 911.677 402.2L904.323 420.8C916.873 425.761 931.036 426.881 944.705 426.686C958.309 426.493 972.712 424.936 985.267 423.971L983.733 404.029ZM911.677 402.2C900.684 397.854 886.751 393.038 872.785 390.869C859.049 388.735 843.625 388.894 830.92 396.386L841.08 413.614C847.875 409.606 857.701 408.765 869.715 410.631C881.499 412.462 893.816 416.646 904.323 420.8L911.677 402.2ZM830.92 396.386C819.741 402.979 809.045 413.513 801.151 424.174C797.168 429.553 793.727 435.192 791.244 440.667C788.828 445.996 787 451.862 787 457.5H807C807 455.888 807.61 453.004 809.459 448.927C811.242 444.996 813.895 440.572 817.224 436.076C823.955 426.987 832.759 418.521 841.08 413.614L830.92 396.386ZM787 457.5C787 462.045 784.134 470.372 778.829 480.18C773.757 489.557 767.461 498.471 762.628 503.743L777.372 517.257C783.539 510.529 790.743 500.193 796.421 489.695C801.866 479.628 807 467.455 807 457.5H787ZM762.628 503.743C756.515 510.412 748.341 521.569 742.028 534.397C735.805 547.04 730.728 562.641 732.574 577.715L752.426 575.285C751.272 565.859 754.445 554.46 759.972 543.228C765.409 532.181 772.485 522.588 777.372 517.257L762.628 503.743ZM732.574 577.715C734.321 591.982 740.543 605.196 748.865 614.844C756.954 624.221 768.465 631.748 781.105 630.982L779.895 611.018C776.035 611.252 770.046 608.779 764.01 601.781C758.207 595.054 753.679 585.518 752.426 575.285L732.574 577.715ZM781.105 630.982C799.621 629.86 816.236 625.619 834.326 636.557L844.674 619.443C819.764 604.381 794.379 610.14 779.895 611.018L781.105 630.982ZM833.818 522.539C831.189 527.138 827.111 533.697 825.192 539.934C824.166 543.27 823.479 547.277 824.204 551.537C824.966 556.01 827.158 560.012 830.661 563.295L844.339 548.705C844.039 548.423 843.95 548.262 843.939 548.243C843.932 548.231 843.929 548.228 843.921 548.181C843.896 548.036 843.834 547.355 844.308 545.816C845.389 542.303 847.811 538.362 851.182 532.461L833.818 522.539ZM830.661 563.295C835.041 567.402 840.41 568.62 844.979 568.819C849.449 569.013 854.184 568.279 858.481 567.439C867.843 565.609 876.268 563.166 885.73 562.473L884.27 542.527C873.232 543.334 861.907 546.391 854.644 547.811C850.629 548.596 847.832 548.924 845.849 548.838C843.965 548.755 843.959 548.348 844.339 548.705L830.661 563.295ZM885.73 562.473C894.948 561.799 902.588 562.683 910.173 563.504C917.395 564.287 925.626 565.194 933.834 563.224L929.166 543.776C924.874 544.806 920.105 544.463 912.327 543.621C904.912 542.817 895.552 541.701 884.27 542.527L885.73 562.473ZM933.834 563.224C937.193 562.418 940.281 560.616 942.771 558.864C945.409 557.008 948.105 554.682 950.74 552.112C956.017 546.965 961.558 540.339 966.519 533.214C971.474 526.098 976.048 518.2 979.216 510.46C982.278 502.979 984.524 494.458 983.399 486.586L963.601 489.414C963.976 492.042 963.285 496.584 960.706 502.884C958.233 508.925 954.464 515.527 950.106 521.786C945.754 528.036 941.015 533.66 936.775 537.794C934.653 539.865 932.783 541.437 931.262 542.507C929.594 543.681 928.932 543.832 929.166 543.776L933.834 563.224ZM983.399 486.586C981.712 474.772 977.343 465.805 968.293 462.023C964.286 460.348 960.329 460.168 957.284 460.289C954.496 460.399 951.159 460.875 949.453 461.055L951.547 480.945C954.591 480.625 956.129 480.351 958.075 480.273C959.764 480.207 960.402 480.402 960.582 480.477C960.635 480.499 960.671 480.519 960.736 480.577C960.811 480.644 961.035 480.864 961.346 481.395C962.016 482.539 962.956 484.901 963.601 489.414L983.399 486.586ZM949.453 461.055C945.674 461.453 942.62 463.315 940.682 464.711C938.562 466.239 936.541 468.13 934.729 469.981C931.18 473.607 927.209 478.376 923.839 482.239C920.178 486.436 917.089 489.736 914.527 491.74C913.934 492.204 913.456 492.528 913.09 492.745C912.717 492.965 912.546 493.024 912.561 493.019C912.634 492.994 913.854 492.629 915.439 493.309L907.561 511.691C911.771 513.496 915.882 513.022 919.04 511.94C922.067 510.904 924.713 509.164 926.848 507.494C931.099 504.17 935.322 499.501 938.911 495.386C942.791 490.937 946.008 487.05 949.021 483.972C950.49 482.471 951.594 481.5 952.372 480.939C953.333 480.247 952.951 480.797 951.547 480.945L949.453 461.055ZM915.439 493.309C916.301 493.678 915.651 493.845 914.117 490.748C912.716 487.922 911.528 484.441 909.898 479.958C908.433 475.93 906.544 470.902 903.905 466.756C901.27 462.615 896.682 457.47 889.191 456.571L886.809 476.429C885.568 476.28 885.73 475.447 887.032 477.494C888.331 479.535 889.567 482.57 891.102 486.792C892.472 490.559 894.159 495.516 896.196 499.627C898.099 503.468 901.449 509.072 907.561 511.691L915.439 493.309ZM889.191 456.571C871.04 454.393 852 468.706 852 490.5H872C872 481.294 879.96 475.607 886.809 476.429L889.191 456.571ZM852 490.5C852 495.237 849.97 499.813 846.26 505.21C844.389 507.93 842.378 510.469 840.144 513.383C838.036 516.13 835.689 519.264 833.818 522.539L851.182 532.461C852.311 530.486 853.902 528.307 856.013 525.555C857.997 522.968 860.486 519.82 862.74 516.54C867.28 509.937 872 501.263 872 490.5H852ZM1079.98 -9.25903C1085.98 0.485879 1097.02 26.8119 1093.12 51.969L1112.88 55.031C1117.78 23.3881 1104.35 -7.81921 1097.02 -19.741L1079.98 -9.25903ZM1093.12 51.969C1090.65 67.8952 1082.79 85.9159 1071.19 100.448C1059.54 115.032 1045.02 125.042 1029.68 127.088L1032.32 146.912C1054.48 143.958 1073.21 129.968 1086.81 112.927C1100.46 95.8341 1109.85 74.6048 1112.88 55.031L1093.12 51.969ZM1029.68 127.088C1012.22 129.415 1000.29 127.33 987.03 126.459C973.504 125.571 960.054 126.256 943.49 135.846L953.51 153.154C965.446 146.244 974.496 145.679 985.72 146.416C997.211 147.17 1012.28 149.585 1032.32 146.912L1029.68 127.088ZM943.49 135.846C925.546 146.234 918.932 164.593 914.477 179.59C912.085 187.641 910.422 194.37 908.093 200.78C905.826 207.02 903.409 211.449 900.429 214.429L914.571 228.571C920.591 222.551 924.236 214.918 926.891 207.61C929.484 200.474 931.603 192.171 933.648 185.285C938.068 170.407 942.954 159.266 953.51 153.154L943.49 135.846ZM900.429 214.429C894.14 220.718 884.098 223.369 874.43 221.338C865.031 219.365 856.845 213.152 853.551 202.536L834.449 208.464C840.155 226.848 854.719 237.635 870.32 240.912C885.652 244.131 902.86 240.282 914.571 228.571L900.429 214.429ZM853.551 202.536C849.583 189.752 848.247 165.008 848.624 140.466C848.808 128.456 849.392 116.915 850.169 107.537C850.971 97.8535 851.921 91.2644 852.64 88.6593L833.36 83.3407C832.079 87.9856 831.029 96.334 830.237 105.885C829.421 115.741 828.817 127.732 828.626 140.159C828.253 164.492 829.417 192.248 834.449 208.464L853.551 202.536ZM852.64 88.6593C853.662 84.9544 853.502 80.6391 853.123 76.9645C852.712 72.9761 851.881 68.4068 850.782 63.5785C848.58 53.8997 845.143 42.4839 841.176 31.2855C837.208 20.0851 832.625 8.86496 828.066 -0.399249C825.79 -5.02614 823.453 -9.30137 821.133 -12.8966C818.917 -16.3306 816.309 -19.7948 813.347 -22.2273L800.653 -6.77274C801.191 -6.3302 802.458 -4.95068 804.328 -2.05263C806.094 0.68418 808.054 4.22927 810.121 8.4305C814.25 16.8225 818.542 27.2899 822.324 37.9645C826.107 48.6411 829.295 59.2878 831.28 68.0152C832.276 72.39 832.929 76.1098 833.229 79.016C833.561 82.2359 833.338 83.4206 833.36 83.3407L852.64 88.6593ZM880.657 -13.796C884.768 -8.59973 890.901 0.203393 895.703 9.37561C898.101 13.9556 900.051 18.4089 901.279 22.3972C902.546 26.5125 902.819 29.4193 902.585 31.1955L922.415 33.8045C923.181 27.9807 922.058 21.9208 920.393 16.5121C918.689 10.9765 916.17 5.34857 913.422 0.0993945C907.932 -10.3867 901.066 -20.2336 896.343 -26.204L880.657 -13.796ZM902.585 31.1955C901.771 37.3832 897.699 42.1807 891.459 50.2645C886.1 57.2075 878.267 67.8007 881.799 81.9254L901.201 77.0746C900.233 73.1993 901.65 69.7925 907.291 62.4855C912.051 56.3193 920.729 46.6168 922.415 33.8045L902.585 31.1955ZM881.799 81.9254C884.795 93.9127 893.47 104.077 905.459 107.647C917.915 111.355 931.624 107.32 943.162 95.4786L928.838 81.5214C921.376 89.1799 915.085 89.645 911.166 88.4782C906.78 87.1726 902.705 83.0873 901.201 77.0746L881.799 81.9254ZM943.162 95.4786C948.908 89.5814 953.312 82.3372 956.961 75.4779C958.805 72.0114 960.537 68.4853 962.165 65.1559C963.82 61.774 965.356 58.6201 966.916 55.6483C970.121 49.5437 972.912 45.2486 975.702 42.6143C978.121 40.3294 980.062 39.6907 982.442 39.9439L984.558 20.0561C975.188 19.0593 967.691 22.6706 961.97 28.0732C956.619 33.1264 952.566 39.9563 949.209 46.3517C947.487 49.6299 945.813 53.0698 944.2 56.3675C942.561 59.7179 940.968 62.9574 939.304 66.0846C935.938 72.4128 932.592 77.6686 928.838 81.5214L943.162 95.4786ZM982.442 39.9439C989.958 40.7434 994.207 44.9411 999.955 51.6782C1004.86 57.4226 1013.02 68.5 1027.5 68.5V48.5C1023.98 48.5 1021.89 46.5774 1015.17 38.6968C1009.29 31.8089 1000.54 21.7566 984.558 20.0561L982.442 39.9439ZM1027.5 68.5C1040.42 68.5 1049.26 62.0165 1054.19 53.0832C1058.73 44.8633 1059.78 35.0584 1059.49 27.1431L1039.51 27.8569C1039.72 33.9416 1038.77 39.6367 1036.68 43.4168C1034.99 46.4835 1032.58 48.5 1027.5 48.5V68.5ZM1059.49 27.1431C1059.3 21.7727 1056.81 16.4832 1054.4 12.3302C1051.8 7.86611 1048.39 3.24757 1044.84 -1.09211C1037.73 -9.7885 1029.36 -18.2049 1023.78 -23.3524L1010.22 -8.64757C1015.3 -3.96179 1022.98 3.77183 1029.36 11.5671C1032.55 15.4733 1035.24 19.186 1037.11 22.3917C1038.04 23.9872 1038.68 25.3121 1039.07 26.357C1039.49 27.4484 1039.51 27.9066 1039.51 27.8569L1059.49 27.1431ZM662.635 -12.8721C668.441 -1.75163 677.23 16.369 684.638 34.4002C688.342 43.4164 691.648 52.283 694.062 60.1651C696.526 68.2136 697.854 74.5909 698.006 78.8569L717.994 78.1431C717.746 71.2091 715.791 62.8197 713.185 54.3099C710.529 45.6337 706.979 36.1503 703.137 26.7998C695.454 8.09769 686.392 -10.5817 680.365 -22.1279L662.635 -12.8721ZM698.006 78.8569C698.486 92.2936 697.528 106.085 696.764 120.535C696.014 134.717 695.46 149.463 697.063 163.625L716.937 161.375C715.54 149.037 715.986 135.783 716.736 121.59C717.472 107.665 718.514 92.7064 717.994 78.1431L698.006 78.8569ZM697.063 163.625C697.868 170.734 700.093 182.366 702.641 195.615C705.233 209.091 708.252 224.687 710.82 240.309C713.393 255.963 715.468 271.387 716.211 284.496C716.985 298.128 716.18 307.502 714.25 312.201L732.75 319.799C736.57 310.498 736.953 296.997 736.179 283.363C735.376 269.207 733.17 252.974 730.555 237.066C727.935 221.126 724.861 205.253 722.281 191.838C719.657 178.196 717.632 167.516 716.937 161.375L697.063 163.625ZM714.25 312.201C709.652 323.397 700.591 331.515 688.375 339.963C676.861 347.925 661.379 356.783 649.171 368.195L662.829 382.805C673.621 372.717 686.139 365.825 699.75 356.412C712.659 347.485 725.848 336.603 732.75 319.799L714.25 312.201ZM649.171 368.195C643.193 373.783 636.381 380.824 629.263 388.223C622.073 395.695 614.492 403.614 606.736 411.248C590.909 426.823 575.61 439.899 563.042 445.317L570.958 463.683C587.39 456.601 605.091 440.927 620.764 425.502C628.758 417.636 636.552 409.493 643.675 402.09C650.869 394.613 657.307 387.967 662.829 382.805L649.171 368.195ZM563.042 445.317C550.153 450.872 531.394 453.12 509.408 455.957C488.352 458.674 464.777 461.918 445.499 470.335L453.501 488.665C469.723 481.582 490.398 478.576 511.967 475.793C532.606 473.13 554.847 470.628 570.958 463.683L563.042 445.317ZM445.499 470.335C436.073 474.451 423.17 481.567 409.073 489.484C394.772 497.514 378.935 506.547 363.085 514.905C347.213 523.275 331.673 530.782 318.077 535.788C303.995 540.971 293.801 542.762 287.801 541.664L284.199 561.336C295.949 563.488 310.63 559.841 324.986 554.556C339.827 549.093 356.287 541.1 372.415 532.595C388.565 524.078 404.728 514.861 418.865 506.922C433.205 498.87 445.177 492.299 453.501 488.665L445.499 470.335ZM287.801 541.664C269.979 538.4 259.065 534.273 253.66 528.525C249.478 524.077 246.767 516.447 252.909 499.387L234.091 492.613C226.733 513.053 227.522 529.923 239.09 542.225C249.435 553.227 266.521 558.1 284.199 561.336L287.801 541.664ZM252.909 499.387C265.42 464.634 290.46 446.674 317.297 449.927L319.703 430.073C280.54 425.326 248.58 452.366 234.091 492.613L252.909 499.387ZM317.297 449.927C326.809 451.08 340.742 450.384 356.635 448.366C372.741 446.32 391.554 442.824 411.131 438.025C450.084 428.476 493.037 413.533 523.864 393.94L513.136 377.06C484.963 394.967 444.416 409.274 406.369 418.6C387.446 423.239 369.384 426.586 354.115 428.525C338.633 430.491 326.691 430.92 319.703 430.073L317.297 449.927ZM523.864 393.94C554.745 374.312 587.33 340.803 613.522 306.366C639.577 272.109 660.495 235.373 666.735 208.785L647.265 204.215C642.005 226.627 623.173 260.641 597.603 294.259C572.17 327.697 541.255 359.188 513.136 377.06L523.864 393.94ZM666.735 208.785C678.329 159.386 682.57 119.009 664.065 79.2779L645.935 87.7221C661.43 120.991 658.671 155.614 647.265 204.215L666.735 208.785ZM664.065 79.278C650.108 49.312 616.636 -3.57415 601.849 -26.0041L585.151 -14.9959C600.031 7.57415 632.692 59.288 645.935 87.722L664.065 79.278ZM693.306 1051.46C695.605 1039.97 697.86 1021.11 697.321 1001.2C696.789 981.534 693.504 959.44 683.646 942.476L666.354 952.524C673.696 965.16 676.828 983.233 677.329 1001.75C677.823 1020.02 675.728 1037.37 673.694 1047.54L693.306 1051.46ZM683.646 942.476C677.902 932.591 669.523 921.48 660.932 910.141C652.181 898.592 642.998 886.538 634.955 874.125C618.478 848.694 608.972 824.932 615.086 804.347L595.914 798.653C587.028 828.568 601.522 859.306 618.17 885C626.69 898.149 636.35 910.815 644.99 922.219C653.79 933.833 661.348 943.909 666.354 952.524L683.646 942.476ZM615.086 804.347C622.115 780.683 633.846 762.636 644.373 747.279C649.514 739.78 654.717 732.431 658.513 725.684C662.29 718.968 665.5 711.478 665.5 703.5H645.5C645.5 706.272 644.335 710.094 641.081 715.879C637.845 721.631 633.361 727.97 627.877 735.971C617.154 751.614 603.885 771.817 595.914 798.653L615.086 804.347ZM665.5 703.5C665.5 695.627 661.766 685.861 657.325 676.667C652.648 666.983 646.298 656.191 639.441 645.666C625.841 624.791 609.467 603.787 598.883 593.745L585.117 608.255C594.033 616.713 609.409 636.209 622.684 656.584C629.265 666.684 635.133 676.705 639.316 685.365C643.734 694.514 645.5 700.623 645.5 703.5H665.5ZM598.883 593.745C596.988 591.948 595.842 589.175 596.311 583.985C596.797 578.602 598.949 572.05 602.105 564.807C605.256 557.575 608.901 550.734 612.14 544.198C613.694 541.062 615.188 537.922 616.302 535.079C617.305 532.519 618.5 529.007 618.5 525.5H598.5C598.5 524.993 598.57 525.512 597.68 527.782C596.902 529.77 595.735 532.259 594.22 535.317C591.318 541.173 587.182 548.987 583.77 556.818C580.363 564.637 577.172 573.554 576.392 582.187C575.595 591.013 577.262 600.802 585.117 608.255L598.883 593.745ZM618.5 525.5C618.5 519.196 615.329 513.456 611.624 509.154C607.742 504.647 602.402 500.657 596.108 497.82C583.323 492.059 566.24 490.904 548.41 500.116L557.59 517.884C569.76 511.596 580.427 512.691 587.892 516.055C591.723 517.781 594.633 520.072 596.469 522.205C598.484 524.544 598.5 525.804 598.5 525.5H618.5ZM548.41 500.116C533.693 507.719 475.378 535.874 419.772 571.116C391.976 588.732 364.468 608.357 343.225 628.351C322.417 647.934 305.793 669.531 303.077 691.26L322.923 693.74C324.707 679.469 336.583 662.066 356.932 642.915C376.845 624.174 403.149 605.33 430.478 588.009C485.122 553.376 542.307 525.781 557.59 517.884L548.41 500.116ZM303.077 691.26C298.572 727.302 297.993 747.869 300.526 762.292C303.163 777.312 309.295 785.528 314.87 795.052L332.13 784.948C325.705 773.972 322.087 769.438 320.224 758.833C318.257 747.631 318.428 729.698 322.923 693.74L303.077 691.26ZM314.87 795.052C320.607 804.853 329.205 821.804 332.657 841.075C336.078 860.178 334.36 880.875 320.478 899.53L336.522 911.47C354.64 887.125 356.422 860.322 352.343 837.55C348.295 814.946 338.393 795.647 332.13 784.948L314.87 795.052ZM320.478 899.53C305.838 919.202 281.747 935.091 257.392 948.857C244.919 955.907 233.977 961.548 223.161 967.566C213.056 973.189 203.621 978.844 197.282 984.593L210.718 999.407C215.129 995.406 222.632 990.748 232.886 985.043C242.429 979.733 255.268 973.031 267.233 966.268C291.753 952.409 319.162 934.798 336.522 911.47L320.478 899.53ZM197.282 984.593C174.673 1005.1 158.188 1032.9 157.012 1057.01L176.988 1057.99C177.812 1041.1 190.327 1017.9 210.718 999.407L197.282 984.593ZM415.987 1055.66C418.61 1047.79 423.841 1035.59 430.785 1025.01C438.103 1013.87 445.635 1007.12 452.032 1005.79L447.968 986.209C433.165 989.281 421.781 1002.28 414.065 1014.04C405.975 1026.36 400.057 1040.21 397.013 1049.34L415.987 1055.66ZM452.032 1005.79C467.248 1002.63 487.317 992.103 505.018 980.006C522.742 967.892 540.022 952.887 548.848 939.506L532.152 928.494C525.478 938.613 510.758 951.858 493.732 963.494C476.683 975.147 459.252 983.867 447.968 986.209L452.032 1005.79ZM548.848 939.506C556.46 927.964 564.91 918.236 572.933 914.056C576.667 912.111 579.733 911.668 582.425 912.224C585.15 912.786 588.879 914.657 593.366 919.959L608.634 907.041C602.121 899.343 594.725 894.339 586.465 892.636C578.173 890.925 570.395 892.827 563.692 896.319C550.84 903.014 540.04 916.536 532.152 928.494L548.848 939.506ZM593.366 919.959C603.276 931.672 613.171 951.422 620.687 970.642C624.391 980.115 627.404 989.168 629.475 996.616C631.645 1004.42 632.5 1009.5 632.5 1011.5H652.5C652.5 1006.5 650.917 999.076 648.744 991.259C646.471 983.082 643.234 973.385 639.313 963.358C631.579 943.578 620.724 921.328 608.634 907.041L593.366 919.959ZM632.5 1011.5C632.5 1021.65 628.363 1048.51 626.147 1061.29L645.853 1064.71C647.97 1052.49 652.5 1023.75 652.5 1011.5H632.5ZM488.036 1050.51C489.784 1044.98 493.481 1036.56 498.594 1029.76C503.947 1022.64 509.105 1019.5 513.5 1019.5V999.5C499.495 999.5 489.153 1009.03 482.606 1017.74C475.819 1026.77 471.216 1037.36 468.964 1044.49L488.036 1050.51ZM513.5 1019.5C518.877 1019.5 523.926 1019.93 529.44 1020.24C534.572 1020.53 540.359 1020.73 545.644 1019.78C551.18 1018.79 557.13 1016.36 561.42 1010.67C565.535 1005.22 567 998.228 567 990.5H547C547 996.022 545.903 998.032 545.455 998.625C545.182 998.987 544.57 999.652 542.106 1000.1C539.391 1000.58 535.741 1000.56 530.56 1000.27C525.762 1000 519.623 999.5 513.5 999.5V1019.5ZM567 990.5C567 987.004 568.121 986.588 568.437 986.419C569.572 985.814 572.256 985.297 576.385 986.246C580.333 987.154 584.308 989.137 587.177 991.608C590.133 994.155 590.952 996.318 591.013 997.512L610.987 996.488C610.548 987.932 605.617 981.095 600.23 976.455C594.755 971.738 587.792 968.346 580.865 966.754C574.119 965.203 565.99 965.061 559.032 968.768C551.254 972.912 547 980.746 547 990.5H567ZM591.013 997.512C591.528 1007.56 592.25 1017.59 592.25 1026.88C592.25 1036.37 591.451 1043.45 589.715 1047.79L608.285 1055.21C611.549 1047.05 612.25 1036.63 612.25 1026.88C612.25 1016.91 611.472 1005.94 610.987 996.488L591.013 997.512ZM227.408 1052.73C236.354 1044.18 252.301 1030.71 270.645 1018.48C289.171 1006.14 309.189 995.724 326.442 992.31L322.558 972.69C301.411 976.876 278.762 989.043 259.555 1001.84C240.166 1014.76 223.313 1028.98 213.592 1038.27L227.408 1052.73ZM326.442 992.31C338.467 989.93 347.827 988.179 355.154 987.211C362.696 986.214 367.028 986.211 369.442 986.686C370.51 986.897 370.712 987.114 370.546 986.994C370.458 986.93 370.345 986.827 370.243 986.697C370.145 986.571 370.116 986.495 370.131 986.529C370.341 987.028 370.8 989.1 370.081 994.734L389.919 997.266C390.7 991.15 390.971 984.472 388.557 978.752C385.642 971.846 379.823 968.347 373.308 967.064C367.472 965.914 360.367 966.348 352.534 967.383C344.486 968.446 334.533 970.32 322.558 972.69L326.442 992.31ZM370.081 994.734C367.801 1012.59 359.772 1041.24 355.951 1053.53L375.049 1059.47C378.894 1047.1 387.399 1017.01 389.919 997.266L370.081 994.734ZM404.812 878.52L404.757 878.735L424.133 883.695L424.188 883.48L404.812 878.52ZM404.757 878.736C402.075 889.219 397.406 907.155 398.142 923.226C398.514 931.348 400.29 940.092 405.335 947.362C410.647 955.016 418.831 959.955 429.669 961.411L432.331 941.589C426.474 940.802 423.552 938.532 421.767 935.959C419.715 933.002 418.404 928.501 418.121 922.311C417.546 909.755 421.294 894.791 424.133 883.693L404.757 878.736ZM429.669 961.411C441.062 962.941 451.653 959.341 460.805 953.459C469.9 947.614 478.097 939.207 485.223 929.993C499.47 911.571 510.679 888.299 516.945 870.285L498.055 863.715C492.321 880.201 482.03 901.429 469.402 917.757C463.091 925.918 456.506 932.448 449.992 936.634C443.535 940.784 437.688 942.309 432.331 941.589L429.669 961.411ZM516.945 870.285C522.747 853.603 534.291 827.526 545.919 803.772C551.71 791.941 557.456 780.823 562.434 771.878C567.568 762.651 571.472 756.497 573.612 753.985L558.388 741.015C554.778 745.253 549.995 753.099 544.957 762.153C539.762 771.489 533.852 782.934 527.956 794.978C516.209 818.974 504.253 845.897 498.055 863.715L516.945 870.285ZM573.612 753.985C580.058 746.418 586.297 736.329 590.888 725.999C595.401 715.844 598.813 704.361 598.495 694.188L578.505 694.812C578.687 700.639 576.599 708.906 572.612 717.876C568.703 726.671 563.442 735.082 558.388 741.015L573.612 753.985ZM598.495 694.188C598.318 688.513 596.145 680.593 593.347 672.704C590.424 664.466 586.397 655.108 581.754 646.149C577.135 637.236 571.742 628.398 566.012 621.379C560.685 614.854 553.532 607.952 545.009 606.204L540.991 625.796C542.218 626.048 545.565 627.959 550.519 634.027C555.071 639.602 559.74 647.139 563.996 655.351C568.228 663.517 571.888 672.034 574.497 679.39C577.23 687.095 578.432 692.487 578.505 694.812L598.495 694.188ZM545.009 606.204C533.365 603.815 511.611 604.173 488.054 610.603C464.271 617.095 437.571 630.066 416.932 653.964L432.068 667.036C449.429 646.934 472.229 635.655 493.321 629.897C514.639 624.077 533.135 624.185 540.991 625.796L545.009 606.204ZM416.932 653.964C398.243 675.604 384.437 692.194 377.814 709.103C370.76 727.113 372.097 744.503 380.083 766.863L398.917 760.137C391.903 740.497 391.74 728.387 396.436 716.397C401.563 703.306 412.757 689.396 432.068 667.036L416.932 653.964ZM380.083 766.863C387.512 787.665 395.008 811.287 399.955 832.236C402.43 842.717 404.223 852.346 405.078 860.516C405.954 868.897 405.742 874.886 404.812 878.522L424.188 883.478C426.008 876.364 425.921 867.54 424.969 858.437C423.995 849.122 422.007 838.596 419.42 827.639C414.242 805.713 406.488 781.335 398.917 760.137L380.083 766.863ZM474.866 797.538C478.388 797.844 479.253 800.294 478.003 798.426C477.202 797.229 476.115 795.052 474.869 791.734C472.419 785.209 470.026 776.12 467.975 766.326C465.94 756.605 464.316 746.551 463.328 738.255C462.834 734.103 462.51 730.483 462.365 727.618C462.293 726.186 462.27 725.012 462.284 724.098C462.292 723.644 462.308 723.29 462.327 723.024C462.347 722.749 462.366 722.635 462.364 722.644L442.636 719.356C442.194 722.008 442.229 725.407 442.391 728.624C442.565 732.08 442.94 736.178 443.469 740.62C444.528 749.512 446.247 760.145 448.4 770.424C450.537 780.63 453.175 790.854 456.146 798.766C457.611 802.667 459.333 806.489 461.382 809.55C462.981 811.94 466.737 816.906 473.134 817.462L474.866 797.538ZM462.364 722.644C462.579 721.355 463.601 718.434 465.953 714.34C468.192 710.441 471.272 706.114 474.918 702.081C482.605 693.578 491.016 688.305 497.954 687.99L497.046 668.01C481.984 668.695 468.895 678.922 460.082 688.669C455.478 693.761 451.558 699.246 448.61 704.379C445.774 709.316 443.421 714.645 442.636 719.356L462.364 722.644ZM497.954 687.99C508.121 687.528 513.161 689.349 515.547 691.399C517.487 693.065 519.663 696.654 519.024 705.804L538.976 707.196C539.837 694.846 537.263 683.685 528.578 676.226C520.339 669.151 508.879 667.472 497.046 668.01L497.954 687.99ZM519.024 705.804C518.775 709.376 516.498 717.065 512.138 727.698C507.959 737.889 502.361 749.627 496.431 760.724C490.48 771.858 484.34 782.074 479.121 789.318C476.481 792.982 474.307 795.562 472.702 797.092C471.892 797.865 471.501 798.104 471.514 798.096C471.541 798.081 471.818 797.921 472.321 797.772C472.83 797.621 473.718 797.438 474.866 797.538L473.134 817.462C476.764 817.778 479.724 816.445 481.478 815.437C483.371 814.35 485.063 812.941 486.505 811.566C489.404 808.801 492.409 805.088 495.348 801.01C501.285 792.77 507.895 781.704 514.069 770.151C520.264 758.56 526.166 746.205 530.643 735.286C534.939 724.81 538.475 714.374 538.976 707.196L519.024 705.804ZM404.612 -17.4171C407.739 -11.3521 413.513 -2.46219 421.039 5.06886C428.308 12.3424 438.873 20 451.5 20V0C446.927 0 441.242 -3.00902 435.186 -9.06886C429.387 -14.8711 424.761 -21.9813 422.388 -26.5829L404.612 -17.4171ZM451.5 20C463.785 20 473.407 13.5637 479.964 6.87698C486.534 0.17866 491.02 -7.72677 493.261 -13.227L474.739 -20.773C473.313 -17.2732 470.15 -11.6787 465.686 -7.12698C461.21 -2.56366 456.415 0 451.5 0V20ZM39.0369 1052.45C45.2292 1044.09 55.4986 1031.58 66.0228 1021.38C71.2998 1016.26 76.3837 1011.98 80.8515 1009.09C85.6877 1005.95 88.2854 1005.45 89.0006 1005.49L89.9994 985.512C82.7146 985.148 75.604 988.655 69.9767 992.301C63.9809 996.186 57.8461 1001.45 52.1022 1007.02C40.5847 1018.18 29.6041 1031.58 22.9631 1040.55L39.0369 1052.45ZM89.0006 1005.49C88.4779 1005.46 89.3235 1005.1 91.2171 1007.94C93.0732 1010.72 94.8695 1015.11 96.4045 1020.83C99.4431 1032.15 100.765 1045.98 101.003 1055.26L120.997 1054.74C120.735 1044.52 119.307 1029 115.72 1015.64C113.943 1009.02 111.458 1002.25 107.861 996.847C104.301 991.505 98.5221 985.939 89.9994 985.512L89.0006 1005.49ZM451.206 68.9957C469.676 69.5389 484.827 65.4064 498.353 62.6775C511.984 59.9274 525.358 58.1791 542.991 61.796L547.009 42.204C525.642 37.8209 509.266 40.0726 494.397 43.0725C479.423 46.0936 467.324 49.4611 451.794 49.0043L451.206 68.9957ZM542.991 61.796C560.011 65.2874 568.98 72.4857 574.214 83.962C579.959 96.5592 581.754 115.449 580.51 143.558L600.49 144.442C601.746 116.051 600.291 92.9408 592.411 75.663C584.02 57.2643 568.989 46.7126 547.009 42.204L542.991 61.796ZM580.51 143.558C579.36 169.546 571.71 183.3 563.425 193.711C558.751 199.584 554.639 203.571 549.479 209.515C544.723 214.995 539.959 221.254 536.728 229.255L555.272 236.745C557.291 231.746 560.402 227.443 564.583 222.625C568.361 218.273 574.249 212.229 579.075 206.164C589.79 192.7 599.14 174.954 600.49 144.442L580.51 143.558ZM536.728 229.255C531.321 242.642 526.367 256.667 514.623 270.795C503.018 284.754 484.237 299.342 450.577 311.604L457.423 330.396C493.763 317.158 515.732 300.746 530.002 283.58C544.133 266.583 550.179 249.358 555.272 236.745L536.728 229.255ZM450.577 311.604C413.087 325.261 394.64 348.793 376.572 365.854C367.442 374.475 358.25 381.758 346.321 386.915C334.413 392.063 319.149 395.357 297.666 395.001L297.334 414.999C321.101 415.393 339.274 411.75 354.257 405.273C369.219 398.805 380.371 389.775 390.303 380.396C410.36 361.457 424.913 342.239 457.423 330.396L450.577 311.604ZM297.666 395.001C276.714 394.654 261.988 389.399 251.312 381.896C240.578 374.353 233.197 364.016 227.84 352.332C222.447 340.57 219.252 327.777 216.728 315.637C214.348 304.185 212.353 291.884 209.421 283.647L190.579 290.353C192.897 296.866 194.402 306.502 197.147 319.707C199.748 332.223 203.303 346.805 209.66 360.668C216.053 374.609 225.422 388.147 239.813 398.26C254.262 408.414 273.036 414.596 297.334 414.999L297.666 395.001ZM209.421 283.647C203.907 268.154 195.494 247.858 188.597 226.047C181.686 204.195 177.197 183.35 178.935 168.135L159.065 165.865C156.803 185.65 162.564 210.055 169.528 232.078C176.506 254.142 185.593 276.346 190.579 290.353L209.421 283.647ZM178.935 168.135C180.708 152.628 189.681 128.181 205.627 105.426C221.518 82.7501 243.461 62.9938 270.322 55.0937L264.678 35.9063C232.039 45.5062 206.732 68.9999 189.248 93.9485C171.819 118.819 161.292 146.372 159.065 165.865L178.935 168.135ZM270.322 55.0937C297.74 47.0294 333.027 49.7664 367.117 55.1884C384.025 57.8776 400.094 61.1244 414.502 63.8354C428.586 66.4853 441.536 68.7194 451.214 68.9959L451.786 49.0041C443.964 48.7806 432.601 46.8897 418.201 44.1803C404.125 41.5319 387.538 38.1849 370.258 35.4366C335.973 29.9836 296.76 26.4706 264.678 35.9063L270.322 55.0937ZM295.5 337.798C324.069 343.628 361.219 333.808 400.323 297.311L386.677 282.689C350.781 316.192 319.931 322.372 299.5 318.202L295.5 337.798ZM400.323 297.311C417.605 281.181 429.727 277.495 439.179 275.699C448.121 274.001 461.254 273.888 472.071 263.071L457.929 248.929C452.746 254.112 448.879 253.499 435.446 256.051C422.523 258.505 406.895 263.819 386.677 282.689L400.323 297.311ZM472.071 263.071C482.881 252.261 484.496 237.514 485.74 227.268C486.425 221.619 486.957 217.136 488.058 213.208C489.11 209.456 490.482 207.025 492.314 205.319L478.686 190.681C473.268 195.725 470.452 201.919 468.801 207.808C467.199 213.52 466.512 219.694 465.885 224.857C464.504 236.236 463.119 243.739 457.929 248.929L472.071 263.071ZM492.314 205.319C495.395 202.45 500.526 198.796 507.489 193.653C514.104 188.766 521.831 182.903 528.86 176.276C542.317 163.588 556.547 144.931 550.121 122.272L530.879 127.728C533.953 138.569 527.933 149.662 515.14 161.724C509.044 167.472 502.146 172.734 495.605 177.566C489.411 182.142 482.855 186.8 478.686 190.681L492.314 205.319ZM550.121 122.272C543.894 100.316 525.662 91.0063 507.187 87.603C488.919 84.2378 468.073 86.0694 451.778 88.0749L454.222 107.925C470.427 105.931 488.581 104.512 503.563 107.272C518.338 109.994 527.606 116.184 530.879 127.728L550.121 122.272ZM451.778 88.0749C435.782 90.0437 412.795 92.1305 389.395 92.3755C365.786 92.6228 342.645 90.9762 325.886 85.9254L320.114 105.075C339.855 111.024 365.464 112.627 389.605 112.374C413.955 112.119 437.718 109.956 454.222 107.925L451.778 88.0749ZM325.886 85.9254C313.476 82.1855 299.18 85.1789 286.194 90.6523C272.899 96.2563 259.375 105.124 247.65 115.425C235.949 125.704 225.575 137.82 218.972 150.211C212.495 162.365 208.808 176.457 213.621 189.469L232.379 182.531C230.442 177.293 231.317 169.572 236.622 159.617C241.8 149.899 250.426 139.608 260.85 130.45C271.25 121.313 282.976 113.712 293.962 109.082C305.258 104.321 314.274 103.314 320.114 105.075L325.886 85.9254ZM213.621 189.469C220.657 208.493 229.199 222.609 235.059 233.914C241.018 245.411 244.409 254.269 244.007 265.13L263.993 265.87C264.591 249.731 259.232 237.089 252.816 224.711C246.301 212.141 238.843 200.007 232.379 182.531L213.621 189.469ZM244.007 265.13C243.42 280.969 248.655 297.398 257.513 310.578C266.345 323.721 279.513 334.664 295.576 337.813L299.424 318.187C289.987 316.336 280.905 309.529 274.112 299.422C267.345 289.352 263.58 277.031 263.993 265.87L244.007 265.13ZM314.559 223.919C313.923 229.765 313.299 236.894 313.456 243.578C313.6 249.746 314.406 257.659 318.233 263.564C320.383 266.88 323.704 269.89 328.418 271.147C332.944 272.354 337.45 271.593 341.454 270.05C349.124 267.095 357.892 260.13 368.198 249.441L353.802 235.559C343.858 245.87 337.626 250.092 334.264 251.387C332.753 251.97 332.736 251.599 333.571 251.822C334.593 252.095 335.055 252.745 335.017 252.686C334.469 251.841 333.587 248.941 333.45 243.109C333.326 237.794 333.827 231.735 334.441 226.081L314.559 223.919ZM368.198 249.441C386.732 230.221 402.284 225.605 414.172 221.186C419.828 219.083 427.163 216.267 431.991 210.003C437.184 203.265 438.045 194.716 436.937 184.88L417.063 187.12C417.955 195.034 416.628 197.173 416.15 197.794C415.306 198.889 413.485 200.104 407.203 202.439C395.216 206.895 375.768 212.779 353.802 235.559L368.198 249.441ZM436.937 184.88C435.826 175.018 433.148 166.908 428.214 161.088C422.954 154.884 416.125 152.432 409.417 152.194C403.116 151.97 396.867 153.671 391.609 155.572C386.301 157.49 381.015 159.998 376.842 161.905L385.158 180.095C389.735 178.002 394.074 175.947 398.407 174.381C402.789 172.797 406.196 172.092 408.708 172.181C410.813 172.256 411.952 172.834 412.958 174.021C414.29 175.592 416.174 179.232 417.063 187.12L436.937 184.88ZM376.842 161.905C374.782 162.847 374.211 162.487 373.929 162.371C372.839 161.919 371.474 160.857 368.546 158.098C363.585 153.421 354.429 143.799 339.017 146.111L341.983 165.889C346.571 165.201 348.915 167.079 354.829 172.652C357.339 175.018 361.254 178.768 366.274 180.848C372.102 183.263 378.468 183.153 385.158 180.095L376.842 161.905ZM339.017 146.111C316.068 149.553 297.668 164.531 295.553 184.971L315.447 187.029C316.332 178.469 324.932 168.447 341.983 165.889L339.017 146.111ZM295.553 184.971C294.857 191.703 297.178 196.968 300.19 200.98C302.735 204.37 306.468 207.616 308.434 209.511C310.841 211.833 312.415 213.66 313.411 215.675C314.307 217.486 314.988 219.968 314.559 223.919L334.441 226.081C335.262 218.532 334.006 212.202 331.339 206.809C328.773 201.621 325.159 197.855 322.316 195.114C319.032 191.947 317.452 190.661 316.185 188.973C315.385 187.907 315.393 187.547 315.447 187.029L295.553 184.971ZM18.1877 1040.02C14.6628 1026.25 9.47208 1003.36 5.41883 979.711C1.32616 955.828 -1.44537 932.051 -0.516854 916.08L-20.4831 914.92C-21.5546 933.349 -18.4095 959.072 -14.2938 983.089C-10.1387 1007.34 -4.82945 1030.75 -1.1877 1044.98L18.1877 1040.02ZM-0.516854 916.08C0.53765 897.943 10.9916 880.549 25.4853 863.872C32.6381 855.642 40.5049 847.886 48.2145 840.548C55.7745 833.353 63.4815 826.288 69.6436 819.998L55.3564 806.002C49.5185 811.962 42.413 818.459 34.4261 826.061C26.5888 833.52 18.1744 841.795 10.3897 850.753C-4.99161 868.451 -19.0376 890.057 -20.4831 914.92L-0.516854 916.08ZM69.6436 819.998C82.7259 806.643 91.3742 788.904 99.5588 775.359C108.171 761.107 116.958 749.86 131.036 743.649L122.964 725.351C103.042 734.14 91.5792 749.893 82.4412 765.016C72.8758 780.846 66.2741 794.857 55.3564 806.002L69.6436 819.998ZM131.036 743.649C146.658 736.757 163.119 733.885 177.294 734C191.854 734.117 202.521 737.349 207.586 741.064L219.414 724.936C209.479 717.651 193.896 714.133 177.456 714C160.631 713.865 141.342 717.243 122.964 725.351L131.036 743.649ZM207.586 741.064C210.892 743.488 215.424 747.05 219.556 749.667C223.427 752.119 229.32 755.375 235.775 755.117C239.419 754.971 243.025 753.719 246.115 751.117C249.048 748.645 250.998 745.398 252.333 742.015C254.919 735.463 256 726.324 256 714.5H236C236 725.676 234.893 731.724 233.73 734.672C233.19 736.039 232.874 736.12 233.229 735.821C233.74 735.39 234.456 735.154 234.975 735.133C235.18 735.125 233.885 735.068 230.257 732.771C226.889 730.638 223.608 728.012 219.414 724.936L207.586 741.064ZM256 714.5C256 693.034 260.388 681.997 265.103 674.652C267.601 670.76 270.371 667.61 273.536 664.024C276.567 660.591 280.169 656.539 283.099 651.605L265.901 641.395C264.081 644.461 261.746 647.159 258.542 650.788C255.473 654.265 251.712 658.49 248.272 663.848C241.112 675.003 236 689.966 236 714.5H256ZM283.099 651.605C285.794 647.065 288.314 641.743 289.759 636.162C291.189 630.636 291.746 624.138 289.596 617.792C284.802 603.638 269.884 597.5 249 597.5V617.5C267.616 617.5 270.198 622.862 270.654 624.208C271.129 625.612 271.248 627.864 270.397 631.15C269.561 634.382 267.956 637.935 265.901 641.395L283.099 651.605ZM249 597.5C228.921 597.5 213.918 597.029 202.167 592.932C191.397 589.178 182.965 582.202 176.739 567.173L158.261 574.827C166.535 594.798 179.103 606.072 195.583 611.818C211.082 617.221 229.579 617.5 249 617.5V597.5ZM176.739 567.173C172.804 557.676 168.143 549.952 161.637 544.142C155.014 538.229 147.255 534.986 138.335 533.144C129.637 531.348 119.378 530.8 107.446 530.557C101.421 530.434 94.784 530.389 87.5564 530.328C80.3035 530.266 72.3962 530.188 63.7142 530.002L63.2858 549.998C72.1038 550.187 80.1184 550.265 87.3869 550.327C94.6809 550.389 101.165 550.433 107.039 550.553C118.904 550.794 127.55 551.339 134.29 552.731C140.807 554.077 145.017 556.115 148.316 559.061C151.732 562.111 154.946 566.824 158.261 574.827L176.739 567.173ZM63.7142 530.002C7.53758 528.798 -43.6247 529.5 -62.2702 530.004L-61.7298 549.996C-43.3753 549.5 7.46242 548.801 63.2858 549.998L63.7142 530.002ZM131.096 951.63C123.899 941.703 115.036 931.282 101.294 929.576C87.9606 927.921 73.6077 934.917 56.4255 948.056L68.5745 963.944C85.3923 951.083 94.0394 948.829 98.8306 949.424C103.214 949.968 107.601 953.297 114.904 963.37L131.096 951.63ZM56.4255 948.056C48.2444 954.313 44.7053 954.568 44.2669 954.522C44.2654 954.522 44.3094 954.527 44.3873 954.549C44.4661 954.572 44.5584 954.607 44.6549 954.655C44.7511 954.703 44.8307 954.755 44.8903 954.8C44.9489 954.844 44.9753 954.873 44.9725 954.87C44.9223 954.816 44.4481 954.249 43.9403 952.584C42.8882 949.133 42.4733 943.645 42.8166 936.512C43.1498 929.586 44.1466 921.948 45.3639 914.644L25.6361 911.356C24.3534 919.052 23.2252 927.539 22.8397 935.551C22.4642 943.355 22.7368 951.617 24.8097 958.416C26.905 965.289 31.8833 973.344 42.2019 974.415C50.7947 975.307 59.7556 970.687 68.5745 963.944L56.4255 948.056ZM45.3639 914.644C46.2131 909.549 49.1458 903.923 54.2224 897.69C59.2595 891.506 65.8574 885.383 73.0902 879.254C76.6845 876.208 80.3459 873.234 83.9903 870.275C87.6019 867.343 91.2197 864.408 94.5745 861.553C101.049 856.044 107.552 850.02 111.455 843.84L94.5451 833.16C92.4483 836.48 88.1386 840.769 81.613 846.322C78.4678 848.998 75.0387 851.782 71.3847 854.748C67.7635 857.688 63.9405 860.792 60.1598 863.996C52.6426 870.367 44.928 877.432 38.7151 885.06C32.5417 892.639 27.2869 901.451 25.6361 911.356L45.3639 914.644ZM111.455 843.84C115.115 838.045 117.387 831.996 119.203 826.476C121.144 820.572 122.377 815.972 124.329 810.913C127.83 801.843 132.87 793.609 145.319 786.762L135.681 769.238C118.13 778.891 110.42 791.407 105.671 803.712C103.498 809.34 101.731 815.584 100.204 820.227C98.5505 825.254 96.8852 829.455 94.5451 833.16L111.455 843.84ZM145.319 786.762C157.153 780.253 177.592 779.336 199.18 784.194C220.627 789.019 239.862 798.802 249.388 809.985L264.612 797.015C251.138 781.198 227.123 769.981 203.57 764.681C180.158 759.414 153.847 759.247 135.681 769.238L145.319 786.762ZM249.388 809.985C260.136 822.602 269.847 840.179 269.01 858.737C268.211 876.472 257.581 898.199 220.996 919.342L231.004 936.658C271.419 913.301 287.789 886.278 288.99 859.638C290.153 833.821 276.864 811.398 264.612 797.015L249.388 809.985ZM220.996 919.342C201.726 930.479 186.728 939.042 174.787 945.355C162.75 951.718 154.354 955.502 148.178 957.363C142.065 959.204 139.356 958.78 137.948 958.243C136.395 957.651 134.38 956.159 131.096 951.63L114.904 963.37C118.87 968.841 123.73 974.224 130.818 976.929C138.05 979.688 145.747 978.983 153.947 976.512C162.083 974.061 171.906 969.501 184.135 963.036C196.46 956.52 211.774 947.771 231.004 936.658L220.996 919.342ZM156 891.5C156 889.24 156.749 884.867 158.547 878.873C160.277 873.107 162.761 866.55 165.7 860.201C168.651 853.826 171.947 847.91 175.231 843.312C178.733 838.409 181.399 836.182 182.729 835.562L174.271 817.438C168.101 820.318 162.954 826.091 158.956 831.688C154.74 837.59 150.849 844.674 147.55 851.799C144.239 858.95 141.41 866.393 139.39 873.127C137.439 879.633 136 886.26 136 891.5H156ZM182.729 835.562C187.577 833.299 195.471 832.89 202.213 834.942C209.414 837.133 210.5 840.248 210.5 841.5H230.5C230.5 826.752 218.086 818.867 208.037 815.808C197.529 812.61 184.423 812.701 174.271 817.438L182.729 835.562ZM210.5 841.5C210.5 843.119 209.529 847.09 206.572 853.193C203.796 858.92 199.808 865.439 195.147 871.741C190.483 878.049 185.321 883.899 180.292 888.4C175.079 893.065 170.794 895.567 167.909 896.342L173.091 915.658C180.456 913.683 187.546 908.747 193.629 903.303C199.897 897.694 205.955 890.764 211.228 883.634C216.505 876.498 221.173 868.924 224.569 861.916C227.783 855.285 230.5 847.881 230.5 841.5H210.5ZM167.909 896.342C163.115 897.628 159.906 898.121 157.808 898.166C155.718 898.211 155.637 897.793 156.209 898.184C156.933 898.68 156.852 899.164 156.577 898.18C156.251 897.011 156 894.97 156 891.5H136C136 895.53 136.249 899.739 137.313 903.555C138.429 907.555 140.629 911.758 144.916 914.691C149.05 917.52 153.813 918.257 158.239 918.162C162.656 918.066 167.635 917.122 173.091 915.658L167.909 896.342ZM-20.5653 765.943C-15.4603 766.49 4.34592 770.617 22.5121 770.936C31.9707 771.102 42.1706 770.348 51.4722 767.444C60.8579 764.514 69.8877 759.202 75.8915 749.939L59.1085 739.061C56.3623 743.298 51.8921 746.361 45.5121 748.353C39.0482 750.371 31.2168 751.086 22.8629 750.939C5.40408 750.633 -9.53971 747.01 -18.4347 746.057L-20.5653 765.943ZM75.8915 749.939C80.6121 742.656 84.2654 735.458 87.3839 728.925C90.6152 722.156 93.0235 716.667 95.7014 711.638C100.924 701.831 105.118 697.88 111.537 696.881L108.463 677.119C92.3817 679.62 84.0762 690.919 78.0486 702.237C75.1015 707.771 72.1973 714.313 69.3349 720.309C66.3596 726.542 63.1379 732.844 59.1085 739.061L75.8915 749.939ZM111.537 696.881C115.869 696.207 123.067 696.401 132.606 697.077C141.544 697.71 152.546 698.765 162.463 699.298C172.417 699.834 182.724 699.953 191.072 698.461C198.45 697.143 209.56 693.581 212.231 682.305L192.769 677.695C193.19 675.919 194.425 677.545 187.553 678.773C181.651 679.828 173.333 679.854 163.537 679.327C153.704 678.798 143.831 677.822 134.019 677.127C124.808 676.474 115.381 676.043 108.463 677.119L111.537 696.881ZM212.231 682.305C215.549 668.294 209.303 654.478 198.923 643.598C188.421 632.588 172.672 623.318 153.422 617.436L147.578 636.564C164.328 641.682 176.829 649.412 184.452 657.402C192.197 665.522 193.951 672.706 192.769 677.695L212.231 682.305ZM153.422 617.436C138.6 612.907 132.59 605.113 126.114 596.32C119.35 587.135 111.257 575.376 92.1711 572.141L88.8289 591.859C99.243 593.624 103.15 598.865 110.011 608.18C117.16 617.887 126.4 630.093 147.578 636.564L153.422 617.436ZM92.1711 572.141C76.7097 569.52 50.8903 567.629 26.3789 567.313C14.0699 567.155 1.8939 567.39 -8.6641 568.159C-18.9609 568.909 -28.5889 570.219 -35.2937 572.558L-28.7063 591.442C-24.6611 590.031 -17.2891 588.841 -7.2109 588.106C2.6061 587.391 14.1801 587.158 26.1211 587.312C50.1097 587.621 74.7903 589.48 88.8289 591.859L92.1711 572.141ZM-19.3581 632.435C-5.09884 630.796 16.6296 629.061 35.4276 629.15C44.8779 629.195 53.1784 629.701 59.2948 630.782C62.3727 631.326 64.4865 631.946 65.7788 632.508C67.2902 633.166 66.5165 633.231 65.7442 631.831L83.2558 622.169C80.8835 617.869 76.8473 615.514 73.7611 614.17C70.4557 612.732 66.6367 611.769 62.7739 611.087C55.0091 609.715 45.3971 609.197 35.5224 609.15C15.6704 609.056 -6.90116 610.871 -21.6419 612.565L-19.3581 632.435ZM65.7442 631.831C66.2147 632.683 66.6473 634.345 66.0263 637.623C65.402 640.919 63.8909 644.867 61.697 649.372C59.5153 653.851 56.9702 658.273 54.4597 662.745C52.1241 666.906 49.5504 671.559 48.0911 675.613L66.9089 682.387C67.6996 680.191 69.3759 677.031 71.8996 672.536C74.2485 668.352 77.1722 663.274 79.678 658.128C82.1716 653.008 84.5668 647.206 85.6769 641.345C86.7902 635.468 86.7853 628.567 83.2558 622.169L65.7442 631.831ZM48.0911 675.613C46.6327 679.664 45.9481 684.866 45.5058 687.082C44.9179 690.028 44.2977 691.597 43.3784 692.77C41.7272 694.877 35.8836 699.5 12 699.5V719.5C36.6164 719.5 51.2728 715.123 59.1216 705.105C62.9523 700.216 64.3321 694.94 65.1192 690.996C66.0519 686.322 66.1173 684.586 66.9089 682.387L48.0911 675.613ZM12 699.5C-6.86399 699.5 -19.9 697.876 -28.377 695.989C-32.6195 695.044 -35.6013 694.06 -37.5436 693.246C-39.7293 692.33 -39.9638 691.894 -39.429 692.429L-53.571 706.571C-51.3696 708.773 -48.3082 710.42 -45.2751 711.691C-41.9987 713.065 -37.8389 714.372 -32.723 715.511C-22.4833 717.791 -7.93601 719.5 12 719.5V699.5ZM231.307 -41.4298C211.518 -23.6027 181.903 7.28669 156.947 42.4217C132.259 77.1797 110.877 117.81 110.003 154.763L129.997 155.237C130.723 124.59 149.008 88.137 173.253 54.0033C197.23 20.2466 225.815 -9.56392 244.693 -26.5702L231.307 -41.4298ZM110.003 154.763C108.972 198.295 117.826 250.028 128.474 293.563C133.817 315.41 139.658 335.38 145.04 351.463C150.346 367.317 155.406 380.009 159.284 386.903L176.716 377.097C173.844 371.991 169.279 360.871 164.007 345.116C158.81 329.589 153.121 310.152 147.901 288.812C137.424 245.972 129.028 196.205 129.997 155.237L110.003 154.763ZM159.284 386.903C166.14 399.091 175.802 416.821 178.425 434.124C179.709 442.592 179.187 450.293 176.325 456.931C173.533 463.405 168.12 469.798 157.881 475.131L167.119 492.869C180.88 485.702 189.842 476.095 194.69 464.85C199.469 453.769 199.853 442.033 198.2 431.126C194.948 409.679 183.36 388.909 176.716 377.097L159.284 386.903ZM157.881 475.131C150.104 479.181 137.464 481.957 120.972 483.315C104.753 484.65 85.8611 484.542 66.3129 483.514C27.2268 481.457 -13.6221 475.769 -39.2279 471.158L-42.7721 490.842C-16.5446 495.564 25.1566 501.376 65.2621 503.486C85.3097 504.541 105.174 504.683 122.613 503.248C139.777 501.834 155.696 498.819 167.119 492.869L157.881 475.131ZM-40.4104 402.728C-32.6639 410.134 -20.4342 421.116 -8.8569 430.016C-3.09947 434.441 2.76595 438.562 7.98669 441.464C10.5843 442.908 13.3154 444.216 15.9912 445.07C18.406 445.841 22.1243 446.694 26.0242 445.676L20.9758 426.324C22.5757 425.906 23.2617 426.397 22.0717 426.017C21.1427 425.72 19.6964 425.091 17.7039 423.983C13.7445 421.782 8.77864 418.346 3.3319 414.159C-7.49909 405.834 -19.1695 395.366 -26.5896 388.272L-40.4104 402.728ZM26.0242 445.676C31.1499 444.339 34.1317 440.593 35.7494 437.802C37.4022 434.95 38.4781 431.665 39.2627 428.693C40.8046 422.85 41.9414 415.156 43.0915 408.773C44.3401 401.844 45.6829 395.862 47.5884 391.445C49.5633 386.867 51.1254 386.279 51.4838 386.187L46.5162 366.813C37.1246 369.221 32.0617 376.945 29.2241 383.523C26.3171 390.263 24.6599 398.281 23.4085 405.227C22.0586 412.719 21.1954 418.775 19.9248 423.589C19.3032 425.944 18.7697 427.214 18.4459 427.772C18.087 428.392 18.7251 426.911 20.9758 426.324L26.0242 445.676ZM51.4838 386.187C51.2283 386.252 51.5801 386.033 53.0132 386.615C54.4922 387.215 56.4795 388.417 58.9916 390.432C64.0648 394.503 69.5972 400.49 75.5653 407.125C81.2093 413.4 87.4292 420.477 93.1065 425.357C95.939 427.792 99.2913 430.269 102.958 431.747C106.769 433.283 112.11 434.156 117.356 431.242L107.644 413.758C109.515 412.719 110.95 413.405 110.433 413.196C109.771 412.93 108.373 412.107 106.144 410.19C101.696 406.367 96.5407 400.538 90.4347 393.75C84.6528 387.322 78.0602 380.091 71.5084 374.833C68.208 372.185 64.5078 369.695 60.5336 368.083C56.5137 366.451 51.6467 365.498 46.5162 366.813L51.4838 386.187ZM117.356 431.242C122.662 428.294 124.816 422.998 125.744 419.054C126.726 414.881 126.862 410.096 126.559 405.237C125.947 395.427 123.386 383.097 119.467 369.798C111.606 343.122 97.7385 310.746 80.43 283.621L63.57 294.379C79.7615 319.754 92.894 350.378 100.283 375.452C103.989 388.028 106.116 398.761 106.598 406.482C106.841 410.388 106.626 412.986 106.276 414.473C105.872 416.189 105.713 414.831 107.644 413.758L117.356 431.242ZM80.43 283.621C73.2317 272.34 69.0863 257.142 67.2515 239.423C65.427 221.804 65.9598 202.458 67.5286 183.447C69.096 164.455 71.6648 146.137 73.8207 130.473C75.9068 115.317 77.7808 101.615 77.4943 93.1612L57.5057 93.8388C57.7192 100.135 56.2182 111.683 54.0075 127.746C51.8665 143.301 49.2165 162.17 47.5964 181.803C45.9777 201.417 45.3542 222.133 47.3579 241.483C49.3512 260.733 54.0183 279.41 63.57 294.379L80.43 283.621ZM77.4943 93.1612C76.8996 75.6187 68.4412 58.0947 57.7771 44.9013C47.3793 32.0373 32.9176 20.9231 18.4481 19.545L16.5519 39.455C23.0824 40.0769 33.1207 46.2127 42.2229 57.4737C51.0588 68.4053 57.1004 81.8813 57.5057 93.8388L77.4943 93.1612ZM18.4481 19.545C8.22586 18.5715 -2.92668 20.7 -12.1776 23.3488C-21.5724 26.0388 -29.9468 29.543 -34.9721 32.0557L-26.0279 49.9443C-22.0532 47.957 -14.8276 44.9112 -6.67236 42.5762C1.62668 40.2 9.97414 38.8285 16.5519 39.455L18.4481 19.545ZM-33.4612 95.8058C-28.0377 96.8905 -19.9608 99.5075 -13.6206 103.531C-6.99958 107.732 -4.83669 111.68 -4.98969 115.046L14.9897 115.954C15.6367 101.72 5.79958 92.1675 -2.90444 86.6441C-11.8892 80.9425 -22.4623 77.6095 -29.5388 76.1942L-33.4612 95.8058ZM-4.98969 115.046C-5.11632 117.832 -6.66551 120.317 -12.6345 122.296C-18.6354 124.285 -26.3058 124.548 -31.5455 124.046L-33.4545 143.954C-26.5275 144.619 -15.848 144.432 -6.34053 141.279C3.19885 138.117 14.3163 130.768 14.9897 115.954L-4.98969 115.046ZM-36.6709 266.47C-28.2546 275.129 -15.7603 289.261 -5.74848 303.334C-0.73289 310.385 3.47217 317.16 6.24653 323.052C9.20003 329.325 9.79568 333.084 9.584 334.707L29.416 337.293C30.4043 329.716 27.6416 321.542 24.341 314.532C20.8612 307.142 15.9162 299.286 10.5485 291.741C-0.206368 276.623 -13.4121 261.704 -22.3291 252.53L-36.6709 266.47ZM9.584 334.707C9.50995 335.274 9.43271 335.865 7.65405 336.737C5.43662 337.825 1.68368 338.633 -3.61272 338.779C-14.0588 339.066 -26.7784 336.717 -35.3464 334.359L-40.6536 353.641C-31.0549 356.283 -16.2246 359.134 -3.06228 358.771C3.44549 358.592 10.5113 357.612 16.4616 354.694C22.8506 351.56 28.2901 345.926 29.416 337.293L9.584 334.707Z" fill="#EA7148"/>
</g>
<defs>
<clipPath id="clip0">
<rect width="1440" height="1024" fill="white"/>
</clipPath>
</defs>
</svg>
